<?xml version="1.0" encoding="UTF-8"?>
<svg id="_레이어_1" data-name="레이어_1" xmlns="http://www.w3.org/2000/svg" version="1.1" viewBox="0 0 20 20">
  <!-- Generator: Adobe Illustrator 29.3.1, SVG Export Plug-In . SVG Version: 2.1.0 Build 151)  -->
  <defs>
    <style>
      .st0, .st1 {
        fill: #8b4f9b;
      }

      .st1 {
        fill-rule: evenodd;
      }

      .st2 {
        opacity: .7;
      }
    </style>
  </defs>
  <g class="st2">
    <g id="D_-_12_x2C__waiter_x2C__resturant_x2C__serve_x2C__lunch_x2C__dinner">
      <g>
        <g>
          <path class="st0" d="M12.11,12.82c-.81,0-1.82-.2-2.71-.4-.04,0-.12-.03-.15-.03-.23-.07-.39-.27-.31-.47.08-.2.31-.34.54-.27.04,0,.08.03.15.03,2.44.57,3.06.37,3.21.24.04-.03.08-.07.04-.24-.04-.2.12-.4.35-.44.23-.03.46.1.5.3.08.47-.12.77-.35.91-.23.3-.74.37-1.28.37Z"/>
          <path class="st0" d="M1.9,17.53c-.35,0-.58-.17-.7-.4-.23-.57-.19-1.31-.15-2.06.04-.64.08-1.31-.08-1.85-.04-.1-.08-.2-.12-.27-.12-.2-.23-.47-.04-.81.23-.44,1.74-1.21,1.86-1.25.12-.07.23-.07.39-.07.31,0,.58.17.93.44.62.54,1.93,2.46,2.28,3.17.15.3.31.71.12,1.08-.15.3-.81.61-2.59,1.38-.46.2-.89.37-1.08.47-.15.03-.5.17-.81.17ZM1.59,12.44h0s.04.13.08.2c.04.1.12.24.15.37.19.64.15,1.38.12,2.06-.04.64-.08,1.21.08,1.68.08,0,.15-.03.23-.1.23-.1.66-.3,1.12-.51.7-.27,1.93-.81,2.2-1.01,0-.03,0-.17-.12-.47-.35-.67-1.59-2.49-2.05-2.93-.19-.17-.27-.2-.31-.24-.46.24-1.35.78-1.51.94Z"/>
          <path class="st1" d="M3.64,14.47c.23-.03.43.13.46.3.04.2-.15.37-.39.4s-.43-.13-.46-.3c0-.2.15-.37.39-.4h0Z"/>
          <path class="st0" d="M11.76,15.17c-.89,0-1.59-.2-2.17-.37-.54-.13-1.04-.3-1.62-.3s-1.2.13-1.97.37c-.23.07-.46,0-.54-.2-.35-.67-1.59-2.49-2.05-2.93-.12-.07-.15-.2-.12-.34,0-.13.08-.24.23-.27.12-.07.23-.13.39-.2.89-.47,2.17-1.11,3.09-1.25.27-.03.62-.07,1.04-.07.89,0,2.24.1,3.44.4,1.28.3,2.01.74,2.28,1.28.97-.57,2.28-1.11,3.25-1.21.08,0,.19-.03.31-.03.85,0,1.78.34,1.86,1.08.04.37-.27.77-.93,1.28-.46.37-1.16.77-1.93,1.21-1.35.71-3.13,1.45-4.02,1.52-.27.03-.43.03-.54.03ZM7.93,13.76c.74,0,1.35.17,1.9.34.58.17,1.12.3,1.9.3h.39c.62-.03,2.17-.64,3.6-1.35,1.86-.98,2.48-1.62,2.48-1.82-.04-.27-.58-.37-.97-.37h-.19c-1.04.13-2.59.88-3.48,1.48-.15.1-.39.1-.54,0-.15-.1-.23-.3-.12-.47,0-.03.04-.07,0-.17h0c-.08-.34-.7-.67-1.74-.91-1.12-.27-2.4-.37-3.21-.37-.35,0-.7.03-.89.07-.81.13-1.93.71-2.78,1.15.58.64,1.31,1.79,1.7,2.46.77-.24,1.39-.34,1.97-.34Z"/>
        </g>
        <path class="st0" d="M15.4,8.97H5.15c-.15,0-.31-.07-.39-.2l-1.2-2.12c-.08-.1-.08-.27,0-.37.08-.1.23-.17.39-.17h12.69c.15,0,.31.07.39.17.08.1.08.24,0,.37l-1.24,2.12c-.08.13-.23.2-.39.2ZM5.42,8.23h9.67l.77-1.38H4.65l.77,1.38Z"/>
        <path class="st0" d="M18.26,6.85H2.29c-.23,0-.43-.17-.43-.37s.19-.37.43-.37h15.93c.23,0,.43.17.43.37.04.2-.15.37-.39.37Z"/>
        <path class="st0" d="M12.92,5.77h-4.91c-.23,0-.43-.17-.43-.37v-2.12c0-.17.12-.3.31-.37l2.44-.71c.08-.03.19-.03.27,0l2.44.71c.19.07.31.2.31.37v2.12c.04.2-.19.37-.43.37ZM8.47,5.03h4.02v-1.48l-2.01-.61-2.01.57v1.52Z"/>
        <rect class="st0" x="5.57" y="3.62" width=".81" height=".71"/>
        <rect class="st0" x="4.34" y="3.62" width=".81" height=".71"/>
        <rect class="st0" x="3.1" y="3.62" width=".81" height=".71"/>
        <rect class="st0" x="17.02" y="3.62" width=".81" height=".71"/>
        <rect class="st0" x="15.78" y="3.62" width=".81" height=".71"/>
        <rect class="st0" x="14.59" y="3.62" width=".81" height=".71"/>
      </g>
    </g>
  </g>
</svg>