<?xml version="1.0" encoding="UTF-8"?>
<svg id="_레이어_1" data-name="레이어_1" xmlns="http://www.w3.org/2000/svg" version="1.1" viewBox="0 0 20 20">
  <!-- Generator: Adobe Illustrator 29.3.1, SVG Export Plug-In . SVG Version: 2.1.0 Build 151)  -->
  <defs>
    <style>
      .st0 {
        fill: #8b4f9b;
      }

      .st1 {
        opacity: .7;
      }
    </style>
  </defs>
  <g class="st1">
    <g>
      <path class="st0" d="M5.94,15.35c-.1,0-.2-.04-.27-.11l-.74-.74s-.08-.06-.13-.06-.1.02-.13.06l-.74.74c-.07.07-.17.11-.27.11H.82c-.21,0-.38-.17-.38-.38V4.73c0-.21.17-.38.38-.38h2.85c.1,0,.2.04.27.11l.74.74s.09.06.13.06.1-.02.13-.06l.74-.74c.07-.07.17-.11.27-.11h13.09c.21,0,.38.17.38.38v10.24c0,.21-.17.38-.38.38H5.94ZM4.8,13.45c.1,0,.2.04.27.11l.97.97s.08.06.13.06h12.28c.1,0,.19-.08.19-.19V5.3c0-.1-.08-.19-.19-.19H6.18c-.05,0-.1.02-.13.06l-.97.97c-.07.07-.17.11-.27.11s-.2-.04-.27-.11l-.97-.97s-.08-.06-.13-.06H1.39c-.1,0-.19.08-.19.19v9.11c0,.1.08.19.19.19h2.04c.05,0,.1-.02.13-.06l.97-.97c.07-.07.17-.11.27-.11Z"/>
      <path class="st0" d="M8.79,9.66c-.21,0-.38-.17-.38-.38v-2.28c0-.21.17-.38.38-.38h7.97c.21,0,.38.17.38.38v2.28c0,.21-.17.38-.38.38h-7.97ZM9.36,7.38c-.1,0-.19.08-.19.19v1.14c0,.1.08.19.19.19h6.83c.1,0,.19-.08.19-.19v-1.14c0-.1-.08-.19-.19-.19h-6.83Z"/>
      <path class="st0" d="M4.8,7.38c-.21,0-.38-.17-.38-.38v-1.14c0-.21.17-.38.38-.38s.38.17.38.38v1.14c0,.21-.17.38-.38.38Z"/>
      <path class="st0" d="M4.8,10.8c-.21,0-.38-.17-.38-.38v-1.14c0-.21.17-.38.38-.38s.38.17.38.38v1.14c0,.21-.17.38-.38.38Z"/>
      <path class="st0" d="M4.8,14.21c-.21,0-.38-.17-.38-.38v-1.14c0-.21.17-.38.38-.38s.38.17.38.38v1.14c0,.21-.17.38-.38.38Z"/>
      <path class="st0" d="M8.79,11.37c-.21,0-.38-.17-.38-.38s.17-.38.38-.38h7.97c.21,0,.38.17.38.38s-.17.38-.38.38h-7.97Z"/>
      <path class="st0" d="M8.79,13.07c-.21,0-.38-.17-.38-.38s.17-.38.38-.38h7.97c.21,0,.38.17.38.38s-.17.38-.38.38h-7.97Z"/>
    </g>
  </g>
</svg>