<?xml version="1.0" encoding="UTF-8"?>
<svg id="_레이어_1" data-name="레이어_1" xmlns="http://www.w3.org/2000/svg" version="1.1" viewBox="0 0 20 20">
  <!-- Generator: Adobe Illustrator 29.3.1, SVG Export Plug-In . SVG Version: 2.1.0 Build 151)  -->
  <defs>
    <style>
      .st0, .st1 {
        fill: #854b93;
      }

      .st1 {
        fill-rule: evenodd;
      }
    </style>
  </defs>
  <path class="st1" d="M1.94,19.09c-.33,0-.63-.17-.79-.45-.17-.28-.18-.62-.03-.91v-.02s1.22-2.6,1.22-2.6l-.17-.26c-.99-1.52-1.51-3.28-1.51-5.1C.66,4.59,4.85.4,10,.4s9.34,4.19,9.34,9.34-4.19,9.34-9.34,9.34H1.94ZM10,1.27C5.33,1.27,1.52,5.07,1.52,9.75c0,1.73.52,3.4,1.5,4.82.19.28.22.64.08.94l-1.26,2.72h8.15c4.67,0,8.48-3.8,8.48-8.48S14.67,1.27,10,1.27Z"/>
  <circle class="st0" cx="6.04" cy="9.75" r=".92"/>
  <circle class="st0" cx="13.96" cy="9.75" r=".92"/>
  <circle class="st0" cx="10" cy="9.75" r=".92"/>
</svg>