<?xml version="1.0" encoding="UTF-8"?>
<svg id="_레이어_1" xmlns="http://www.w3.org/2000/svg" version="1.1" viewBox="0 0 20 20">
  <!-- Generator: Adobe Illustrator 29.3.1, SVG Export Plug-In . SVG Version: 2.1.0 Build 151)  -->
  <defs>
    <style>
      .st0, .st1 {
        fill: #854b93;
        opacity: .6;
      }

      .st1 {
        fill-rule: evenodd;
      }
    </style>
  </defs>
  <path class="st1" d="M1.9,19.1c-.3,0-.6-.2-.8-.5-.2-.3-.2-.6,0-.9h0s1.2-2.6,1.2-2.6l-.2-.3c-1-1.5-1.5-3.3-1.5-5.1,0-5.2,4.2-9.3,9.3-9.3s9.3,4.2,9.3,9.3-4.2,9.3-9.3,9.3H1.9ZM10,1.3C5.3,1.3,1.5,5.1,1.5,9.8s.5,3.4,1.5,4.8c.2.3.2.6,0,.9l-1.3,2.7h8.1c4.7,0,8.5-3.8,8.5-8.5S14.7,1.3,10,1.3Z"/>
  <circle class="st0" cx="6" cy="9.8" r=".9"/>
  <circle class="st0" cx="14" cy="9.8" r=".9"/>
  <circle class="st0" cx="10" cy="9.8" r=".9"/>
</svg>