<?xml version="1.0" encoding="UTF-8"?>
<svg id="_레이어_1" xmlns="http://www.w3.org/2000/svg" version="1.1" viewBox="0 0 20 20">
  <!-- Generator: Adobe Illustrator 29.3.1, SVG Export Plug-In . SVG Version: 2.1.0 Build 151)  -->
  <defs>
    <style>
      .st0 {
        fill: #7e498a;
        opacity: .6;
      }
    </style>
  </defs>
  <path class="st0" d="M1,9.3h0c0-.2,0-.3.3-.3s.3,0,.3.3v.2h.7v-.2c0-.6-.6-.7-.9-.7s-.9.2-1,.6c0,.1,0,.2,0,.4.1.6,1.1.7,1.3,1.1,0,0,0,.2,0,.2,0,0,0,.2-.3.2s-.3,0-.3-.3v-.3H.3v.2c0,.6.5.8,1,.8s.9-.2,1-.6c0-.2,0-.4,0-.5-.1-.6-1.2-.8-1.3-1.1h0ZM10.1,9.3h0c0-.2,0-.3.3-.3s.3,0,.3.3v.2h.7v-.2c0-.6-.5-.7-.9-.7s-.9.2-1,.6c0,.1,0,.2,0,.4.1.6,1.1.7,1.2,1.1,0,0,0,.2,0,.2,0,0,0,.2-.3.2s-.3,0-.3-.3v-.3h-.7v.2c0,.6.5.8,1,.8s.9-.2,1-.6c0-.2,0-.4,0-.5-.1-.6-1.2-.7-1.2-1.1h0ZM16.4,10.8l-.7-2.2h-1v2.8h.7v-2.3s.7,2.3.7,2.3h1v-2.8h-.7v2.2h0ZM3.3,8.6l-.5,2.8h.7l.4-2.6.4,2.6h.7l-.5-2.8h-1.2,0ZM7.5,8.6l-.4,2.2-.4-2.2h-1.1v2.8c0,0,.6,0,.6,0v-2.6s.5,2.6.5,2.6h.7l.5-2.6v2.6h.7v-2.8h-1.2,0ZM13.9,8.6h-.7v2.2c0,0,0,.2-.3.2s-.3-.1-.3-.2v-2.2h-.7v2.2c0,.5.5.7,1,.7s.9-.2,1-.7v-2.2ZM18.8,9.8v.4h.3v.5c0,0,0,.2-.3.2s-.3-.1-.3-.2v-1.4s0,0,0-.1c0,0,0-.2.3-.2s.3.1.3.2v.3h.7v-.3c0-.5-.5-.7-1-.7s-.9.2-1,.7c0,0,0,.1,0,.2v1.2s0,0,0,.2c0,.5.5.7,1,.7s.9-.2,1-.7v-.9h-1Z"/>
</svg>