<?xml version="1.0" encoding="UTF-8"?>
<svg id="_레이어_1" data-name="레이어_1" xmlns="http://www.w3.org/2000/svg" version="1.1" viewBox="0 0 20 20">
  <!-- Generator: Adobe Illustrator 29.3.1, SVG Export Plug-In . SVG Version: 2.1.0 Build 151)  -->
  <defs>
    <style>
      .st0 {
        opacity: .6;
      }

      .st1 {
        fill: none;
        stroke: #844b92;
        stroke-linecap: round;
        stroke-linejoin: round;
        stroke-width: .75px;
      }
    </style>
  </defs>
  <g id="Layer_27" class="st0">
    <polyline class="st1" points="11.87 3.98 17.46 3.98 17.46 7.46 2.55 7.46 2.55 3.98 8.14 3.98"/>
    <polyline class="st1" points="3.55 7.46 3.55 18.39 16.46 18.39 16.46 7.46"/>
    <polyline class="st1" points="5.04 18.39 5.04 15.28 9.01 15.28 9.01 18.39"/>
    <line class="st1" x1="7.02" y1="15.28" x2="7.02" y2="18.39"/>
    <polyline class="st1" points="11 18.39 11 15.28 14.97 15.28 14.97 18.39"/>
    <line class="st1" x1="12.99" y1="15.28" x2="12.99" y2="18.39"/>
    <line class="st1" x1="3.55" y1="13.42" x2="16.46" y2="13.42"/>
    <line class="st1" x1="3.55" y1="9.45" x2="16.46" y2="9.45"/>
    <line class="st1" x1="5.78" y1="12.18" x2="7.27" y2="10.69"/>
    <line class="st1" x1="9.26" y1="12.18" x2="10.75" y2="10.69"/>
    <line class="st1" x1="12.74" y1="12.18" x2="14.23" y2="10.69"/>
    <polygon class="st1" points="12.18 5.66 7.83 5.66 8.45 1.31 11.56 1.31 12.18 5.66"/>
    <path class="st1" d="M9.51,2.99v.5c0,.27.22.5.5.5h0c.27,0,.5-.22.5-.5v-.5"/>
  </g>
</svg>