<?xml version="1.0" encoding="UTF-8"?>
<svg id="_레이어_1" data-name="레이어_1" xmlns="http://www.w3.org/2000/svg" version="1.1" viewBox="0 0 20 20">
  <!-- Generator: Adobe Illustrator 29.3.1, SVG Export Plug-In . SVG Version: 2.1.0 Build 151)  -->
  <defs>
    <style>
      .st0 {
        fill: #8b4f9b;
        opacity: .7;
      }
    </style>
  </defs>
  <path class="st0" d="M19.03,10.7l-1.31-5.7c-.13-.56-.68-.9-1.24-.78l-1.05.24c-.56.13-.9.68-.78,1.24l.03.11-.41.18c-.32.14-.66.12-.98-.06-.32-.18-.6-.34-.85-.49-1.16-.68-1.8-1.06-2.77-.7-.27.1-.54.3-.82.56h-3.49c-.06-.41-.37-.75-.79-.85l-1.05-.24c-.56-.13-1.11.22-1.24.78l-1.31,5.7c-.06.27-.01.54.13.78.15.23.38.4.64.46l1.05.24c.08.02.15.03.23.03.19,0,.38-.05.55-.16.19-.12.33-.29.41-.49l3.77,3.73c.23.23.55.36.88.36h0c.33,0,.64-.13.88-.36.13-.13.23-.29.29-.46l.39.39c.23.23.55.36.88.36h0c.33,0,.64-.13.88-.36.13-.13.23-.29.29-.47.22.18.5.28.79.28h0c.33,0,.64-.13.88-.36s.36-.55.36-.88c0-.04,0-.08,0-.12.3-.02.58-.15.79-.36.32-.32.43-.77.33-1.18l.75-.33c.08.1.17.19.28.26.17.1.36.16.55.16.08,0,.15,0,.23-.03l1.05-.24c.27-.06.5-.22.64-.46.15-.23.19-.51.13-.78h0ZM9.93,5.41c.63-.23,1.02-.03,2.17.64.25.15.54.32.86.5.51.29,1.08.32,1.61.09l.28-.12,1.05,4.6-.87.39-3.22-3.22c-.63-.63-1.61-.72-2.34-.21-1.11.77-1.85,1.06-2.56.43.51-.48.99-1.04,1.42-1.55.6-.71,1.17-1.38,1.6-1.54h0ZM3.21,11.44c-.07.05-.16.06-.25.04l-1.05-.24c-.08-.02-.16-.07-.2-.14-.05-.07-.06-.16-.04-.25l1.31-5.7c.03-.15.17-.25.32-.25.02,0,.05,0,.07,0l1.05.24c.18.04.28.22.24.39l-1.31,5.7c-.02.08-.07.16-.14.2h0ZM14.57,12.79c-.1.1-.23.16-.38.16-.14,0-.28-.06-.38-.16l-2.51-2.51c-.14-.14-.36-.14-.5,0-.14.14-.14.36,0,.5,0,0,2.6,2.6,2.62,2.62.1.1.16.23.16.38,0,.14-.06.28-.16.38-.1.1-.23.16-.38.16h0c-.14,0-.28-.06-.38-.16l-2.7-2.7c-.14-.14-.36-.14-.5,0-.14.14-.14.36,0,.5l2,2c.09.1.15.23.15.37,0,.14-.06.28-.16.38-.1.1-.23.16-.38.16h0c-.14,0-.28-.06-.38-.16l-2.19-2.19c-.14-.14-.36-.14-.5,0-.14.14-.14.36,0,.5l1.02,1.02c.1.1.15.23.15.37,0,.14-.06.28-.16.38-.1.1-.23.16-.38.16h0c-.14,0-.28-.06-.38-.16l-4.07-4.03,1.08-4.73h2.92c-.13.15-.27.31-.41.48-.51.61-1.04,1.23-1.61,1.71-.15.13-.17.35-.04.5.52.63,1.07.84,1.61.84.84,0,1.62-.54,2.13-.9.45-.31,1.04-.26,1.44.13l3.26,3.26c.21.21.21.55,0,.75h0ZM18.3,11.1c-.05.07-.12.13-.2.14l-1.05.24c-.08.02-.17,0-.25-.04-.07-.05-.13-.12-.14-.2l-1.31-5.7c-.04-.18.07-.35.24-.39l1.05-.24c.17-.04.35.07.39.24l1.31,5.7c.02.08,0,.17-.04.25Z"/>
</svg>