<?xml version="1.0" encoding="UTF-8"?>
<svg id="_레이어_1" xmlns="http://www.w3.org/2000/svg" version="1.1" viewBox="0 0 20 20">
  <!-- Generator: Adobe Illustrator 29.3.1, SVG Export Plug-In . SVG Version: 2.1.0 Build 151)  -->
  <defs>
    <style>
      .st0 {
        fill: #7e498a;
      }

      .st1 {
        opacity: .6;
      }
    </style>
  </defs>
  <g class="st1">
    <path class="st0" d="M10.4,5.1h0c2.1-.4,3.6-2.3,3.6-4.5s0-.2-.2-.3c0,0-.2,0-.3,0-2.1.4-3.6,2.3-3.6,4.5s.2.4.4.4h0ZM13.2,1.2c-.2,1.4-1.1,2.5-2.4,2.9.2-1.4,1.1-2.5,2.4-2.9Z"/>
    <path class="st0" d="M17.9,13.6c-1.3-.6-2.2-1.8-2.2-3.2s.6-2.5,1.8-3.2c.2,0,.2-.3.2-.6,0,0,0,0,0,0-.9-.9-2.2-1.5-3.5-1.5s-1.3.2-1.9.4c-.6.2-1.2.4-1.8.4s-1.2-.2-1.8-.4c-.6-.2-1.2-.4-1.9-.4s-4.9.2-4.9,5.7,3.1,8.9,4.9,8.9,1.5-.2,2.3-.5c.9-.4,1.9-.4,2.8,0,.7.3,1.5.5,2.3.5,1.5,0,3.2-2.8,4.1-5.5,0-.2,0-.5-.2-.6h0ZM14.1,18.9c-.6,0-1.4-.2-1.9-.4-1.1-.5-2.3-.5-3.3,0-.6.2-1.4.4-2,.4-1.1,0-4.1-3.9-4.1-8.1s3.4-4.9,4.1-4.9,1.1.2,1.6.4c.6.2,1.3.4,2,.4s1.4-.2,2-.4c.5-.2,1.1-.3,1.6-.4,1,0,1.9.3,2.6.9-1.9,1.5-2.4,4.2-.9,6.2.4.5.9,1,1.5,1.2-1.1,2.9-2.5,4.7-3.2,4.7h0Z"/>
  </g>
</svg>