<?xml version="1.0" encoding="UTF-8"?>
<svg id="_레이어_1" xmlns="http://www.w3.org/2000/svg" version="1.1" viewBox="0 0 20 20">
  <!-- Generator: Adobe Illustrator 29.3.1, SVG Export Plug-In . SVG Version: 2.1.0 Build 151)  -->
  <defs>
    <style>
      .st0 {
        opacity: .6;
      }

      .st1 {
        fill: none;
        stroke: #844b92;
        stroke-linecap: round;
        stroke-linejoin: round;
        stroke-width: .8px;
      }
    </style>
  </defs>
  <g id="Layer_27" class="st0">
    <polyline class="st1" points="12.3 3.5 18.5 3.5 18.5 7.4 2 7.4 2 3.5 8.2 3.5"/>
    <polyline class="st1" points="3.1 7.4 3.1 19.4 17.4 19.4 17.4 7.4"/>
    <polyline class="st1" points="4.8 19.4 4.8 16 9.2 16 9.2 19.4"/>
    <line class="st1" x1="7" y1="16" x2="7" y2="19.4"/>
    <polyline class="st1" points="11.3 19.4 11.3 16 15.7 16 15.7 19.4"/>
    <line class="st1" x1="13.5" y1="16" x2="13.5" y2="19.4"/>
    <line class="st1" x1="3.1" y1="13.9" x2="17.4" y2="13.9"/>
    <line class="st1" x1="3.1" y1="9.6" x2="17.4" y2="9.6"/>
    <line class="st1" x1="5.6" y1="12.6" x2="7.2" y2="10.9"/>
    <line class="st1" x1="9.4" y1="12.6" x2="11.1" y2="10.9"/>
    <line class="st1" x1="13.3" y1="12.6" x2="14.9" y2="10.9"/>
    <polygon class="st1" points="12.7 5.4 7.8 5.4 8.5 .6 12 .6 12.7 5.4"/>
    <path class="st1" d="M9.7,2.4v.5c0,.3.2.5.5.5h0c.3,0,.5-.2.5-.5v-.5"/>
  </g>
</svg>