<?xml version="1.0" encoding="UTF-8"?>
<svg id="_레이어_1" data-name="레이어_1" xmlns="http://www.w3.org/2000/svg" version="1.1" viewBox="0 0 20 20">
  <!-- Generator: Adobe Illustrator 29.3.1, SVG Export Plug-In . SVG Version: 2.1.0 Build 151)  -->
  <defs>
    <style>
      .st0 {
        opacity: .6;
      }

      .st1, .st2 {
        fill: #3fa979;
      }

      .st2 {
        fill-rule: evenodd;
      }
    </style>
  </defs>
  <g class="st0">
    <path class="st2" d="M13.36,8c.2.2.2.51,0,.71,0,0,0,0,0,0l-3,3c-.2.2-.51.2-.71,0,0,0,0,0,0,0l-1.5-1.5c-.2-.2-.2-.51,0-.71s.51-.2.71,0l1.15,1.15,2.65-2.65c.2-.2.51-.2.71,0,0,0,0,0,0,0Z"/>
    <path class="st1" d="M5.51,1.85h10c1.1,0,2,.9,2,2v12c0,1.1-.9,2-2,2H5.51c-1.1,0-2-.9-2-2v-1h1v1c0,.55.45,1,1,1h10c.55,0,1-.45,1-1V3.85c0-.55-.45-1-1-1H5.51c-.55,0-1,.45-1,1v1h-1v-1c0-1.1.9-2,2-2Z"/>
    <path class="st1" d="M3.51,6.85v-.5c0-.28.22-.5.5-.5s.5.22.5.5v.5h.5c.28,0,.5.22.5.5s-.22.5-.5.5h-2c-.28,0-.5-.22-.5-.5s.22-.5.5-.5h.5ZM3.51,9.85v-.5c0-.28.22-.5.5-.5s.5.22.5.5v.5h.5c.28,0,.5.22.5.5s-.22.5-.5.5h-2c-.28,0-.5-.22-.5-.5s.22-.5.5-.5h.5ZM3.51,12.85v-.5c0-.28.22-.5.5-.5s.5.22.5.5v.5h.5c.28,0,.5.22.5.5s-.22.5-.5.5h-2c-.28,0-.5-.22-.5-.5s.22-.5.5-.5h.5Z"/>
  </g>
</svg>