<?xml version="1.0" encoding="UTF-8"?>
<svg id="_레이어_1" data-name="레이어_1" xmlns="http://www.w3.org/2000/svg" version="1.1" viewBox="0 0 20 20">
  <!-- Generator: Adobe Illustrator 29.3.1, SVG Export Plug-In . SVG Version: 2.1.0 Build 151)  -->
  <defs>
    <style>
      .st0 {
        fill: #3fa979;
        stroke: #3fa979;
        stroke-miterlimit: 10;
        stroke-width: .5px;
      }

      .st1 {
        opacity: .7;
      }
    </style>
  </defs>
  <g class="st1">
    <path class="st0" d="M17.6,3.51h0c0-.7-.57-1.26-1.27-1.27-1.92-.03-5.42.26-7.74,2.4-2.44-.11-4.71,1.01-6.09,3.04-.13.19-.13.44.01.62.14.19.37.26.59.19.94-.29,1.91-.36,2.79-.24-.08.16-.15.32-.22.48,0,0,0,0,0,0l-.91,1.9c-.27.56-.15,1.24.29,1.68l2.44,2.44c.43.43,1.1.55,1.66.3.02,0,2.41-1.11,2.43-1.12.13.99.03,1.93-.24,2.79-.07.22,0,.45.19.58.19.14.43.14.62.01,2-1.36,3.13-3.58,3.04-5.99,1.45-1.48,1.88-3.47,1.9-3.56,0-.04,0-.08,0-.12.37-1.34.52-2.79.5-4.15ZM16.32,2.61c.5,0,.9.4.9.9.02,1.26-.12,2.62-.44,3.87l-4.33-4.33c1.47-.39,2.91-.45,3.87-.44ZM3,8.14h0c-.11.03-.17-.04-.18-.06-.02-.02-.06-.1,0-.19,1.24-1.82,3.24-2.88,5.42-2.89-.87.9-1.6,1.89-2.15,2.9-1.04-.16-2.09-.07-3.08.23ZM9,14.72c-.42.19-.92.1-1.24-.22l-2.44-2.44c-.33-.33-.42-.83-.21-1.25l.8-1.67,4.81,4.81-1.71.79ZM11.07,13.77l-5-5c.57-1.28,1.47-2.56,2.59-3.68.96-.96,2.16-1.56,3.38-1.92l4.63,4.63c-.02.06-.04.14-.07.25-.1.32-.22.63-.36.94-.01.02-.02.05-.02.07-.2.45-.48.96-.85,1.45-.22.26-.47.54-.62.68-.03.03-.06.06-.09.09-.01.01-.02.02-.04.03-.01,0-.02.02-.03.03-1.09,1.06-2.31,1.9-3.53,2.45ZM11.95,17.02c-.09.06-.17.01-.19,0-.02-.02-.09-.08-.06-.17.3-.96.39-2.02.24-3.09.99-.53,1.95-1.24,2.84-2.09.02,0,.04,0,.06-.01-.02,2.16-1.08,4.14-2.89,5.37Z"/>
    <path class="st0" d="M13.38,6.46c-.79-.79-2.07-.79-2.86,0-.79.79-.79,2.07,0,2.86.79.79,2.07.79,2.86,0,.79-.79.79-2.07,0-2.86ZM13.11,9.06c-.64.64-1.69.64-2.34,0-.64-.64-.64-1.69,0-2.34.64-.64,1.69-.64,2.34,0s.64,1.69,0,2.34Z"/>
    <path class="st0" d="M3.14,14.22h0c-.65.65-.66,2.82-.66,3.06,0,.05.02.1.06.13.03.03.08.05.13.05,0,0,0,0,0,0,.23-.01,2.3-.13,2.94-.77.68-.68.68-1.79,0-2.48-.68-.68-1.79-.68-2.48,0ZM5.36,16.43c-.42.42-1.8.6-2.5.65.02-.73.13-2.19.55-2.6.54-.54,1.41-.54,1.95,0,.54.54.54,1.41,0,1.95Z"/>
  </g>
</svg>