<?xml version="1.0" encoding="UTF-8"?>
<svg id="_레이어_1" data-name="레이어_1" xmlns="http://www.w3.org/2000/svg" version="1.1" viewBox="0 0 20 20">
  <!-- Generator: Adobe Illustrator 29.3.1, SVG Export Plug-In . SVG Version: 2.1.0 Build 151)  -->
  <defs>
    <style>
      .st0 {
        fill: #3fa979;
      }

      .st1 {
        opacity: .7;
      }
    </style>
  </defs>
  <g class="st1">
    <path class="st0" d="M2.77,15.4c-1.23,0-2.22-1-2.22-2.22s1-2.22,2.22-2.22h1.81c.23,0,.41.19.41.41v3.62c0,.23-.19.41-.41.41h-1.81ZM2.77,11.79c-.77,0-1.39.63-1.39,1.39s.63,1.39,1.39,1.39h1.21c.1,0,.19-.08.19-.19v-2.41c0-.1-.08-.19-.19-.19h-1.21Z"/>
    <path class="st0" d="M10,17.21s-.09,0-.13-.02l-5.42-1.81c-.17-.06-.28-.21-.28-.39v-3.62c0-.18.11-.34.28-.39l5.42-1.81s.09-.02.13-.02c.18,0,.34.11.39.28.01.04.02.09.02.13v7.23c0,.23-.19.41-.41.41h0ZM9.4,10.21s-.04,0-.06,0l-4.22,1.41c-.08.03-.13.1-.13.18v2.75c0,.08.05.15.13.18l4.22,1.41s.04,0,.06,0c.04,0,.08-.01.11-.04.05-.04.08-.09.08-.15v-5.56c0-.06-.03-.12-.08-.15-.03-.02-.07-.04-.11-.04Z"/>
    <path class="st0" d="M11.21,18.42c-.89,0-1.62-.73-1.62-1.62v-7.23c0-.89.73-1.62,1.62-1.62s1.62.73,1.62,1.62v7.23c0,.89-.73,1.62-1.62,1.62ZM11.21,8.78c-.44,0-.79.36-.79.79v7.23c0,.44.35.79.79.79s.79-.35.79-.79v-7.23c0-.44-.36-.79-.79-.79h0Z"/>
    <path class="st0" d="M3.38,19.62c-.89,0-1.62-.73-1.62-1.62v-3.01c0-.23.19-.41.41-.41h2.41c.23,0,.41.19.41.41v3.01c0,.89-.73,1.62-1.62,1.62ZM2.77,15.4c-.1,0-.19.08-.19.19v2.41c0,.44.35.79.79.79s.79-.35.79-.79v-2.41c0-.1-.08-.19-.19-.19h-1.21Z"/>
    <path class="st0" d="M18.44,13.6c-.11,0-.22-.05-.3-.13l-2.08-2.22s-.09-.06-.14-.06h-3.5c-.23,0-.41-.19-.41-.41s.19-.41.41-.41h3.77c.11,0,.22.05.3.13l1.33,1.6s.09.06.14.06c.02,0,.05,0,.07-.01.07-.03.12-.1.12-.18l-.11-1.35c0-.15.08-.28.21-.36.24-.14.4-.4.4-.69V2.34c0-.44-.36-.79-.79-.79h-9.64c-.44,0-.79.36-.79.79v8.24c0,.23-.19.41-.41.41s-.41-.19-.41-.41V2.34c0-.89.73-1.62,1.62-1.62h9.64c.89,0,1.62.73,1.62,1.62v7.23c0,.46-.19.9-.54,1.21-.04.04-.06.09-.06.14v2.27c0,.17-.1.32-.26.39-.05.02-.1.03-.15.03h0Z"/>
    <path class="st0" d="M10.61,3.96c-.23,0-.41-.19-.41-.41s.19-.41.41-.41h5.42c.23,0,.41.19.41.41s-.19.41-.41.41h-5.42Z"/>
    <path class="st0" d="M10.61,6.37c-.23,0-.41-.19-.41-.41s.19-.41.41-.41h5.42c.23,0,.41.19.41.41s-.19.41-.41.41h-5.42Z"/>
    <path class="st0" d="M14.22,8.78c-.23,0-.41-.19-.41-.41s.19-.41.41-.41h1.81c.23,0,.41.19.41.41s-.19.41-.41.41h-1.81Z"/>
  </g>
</svg>