<?xml version="1.0" encoding="UTF-8"?>
<svg id="_레이어_1" data-name="레이어_1" xmlns="http://www.w3.org/2000/svg" version="1.1" viewBox="0 0 20 20">
  <!-- Generator: Adobe Illustrator 29.3.1, SVG Export Plug-In . SVG Version: 2.1.0 Build 151)  -->
  <defs>
    <style>
      .st0 {
        opacity: .6;
      }

      .st1 {
        fill: #3fa979;
      }
    </style>
  </defs>
  <g class="st0">
    <g id="D_-_24_x2C__connection_x2C__meeting_x2C__office_x2C__communication">
      <g>
        <path class="st1" d="M8.8,18.79H1.36c-.21,0-.38-.17-.38-.38v-2.65c0-.17.1-.31.28-.38l2.31-.72c.1-.03.24-.03.31.03l1.21.79,1.38-.79c.1-.07.21-.07.31-.03l2.13.72c.17.07.28.21.28.38v2.65c.03.21-.14.38-.38.38ZM1.74,17.99h6.68v-2l-1.69-.55-1.45.83c-.14.07-.28.07-.41,0l-1.27-.83-1.86.59v1.96Z"/>
        <path class="st1" d="M2.98,18.79c-.1,0-.21-.03-.28-.1-.07-.07-.1-.17-.1-.28v-1.45c0-.21.17-.38.38-.38s.38.17.38.38v1.07h3.58v-1.07c0-.21.17-.38.38-.38h0c.21,0,.38.17.38.38v1.45c0,.1-.03.21-.1.28-.07.07-.17.1-.28.1H2.98Z"/>
        <path class="st1" d="M5.01,14.41c-1.21,0-2.2-1-2.2-2.2s1-2.2,2.2-2.2,2.2,1,2.2,2.2-1,2.2-2.2,2.2ZM5.01,10.76c-.79,0-1.45.65-1.45,1.45s.65,1.45,1.45,1.45,1.45-.65,1.45-1.45-.65-1.45-1.45-1.45Z"/>
        <path class="st1" d="M18.65,18.79h-7.44c-.21,0-.38-.17-.38-.38v-2.65c0-.17.1-.31.28-.38l2.31-.72c.1-.03.24-.03.31.03l1.21.79,1.38-.79c.1-.07.21-.07.31-.03l2.13.72c.17.07.28.21.28.38v2.65c0,.21-.17.38-.38.38ZM11.59,17.99h6.68v-2l-1.69-.55-1.45.83c-.14.07-.28.07-.41,0l-1.27-.83-1.86.59v1.96h0Z"/>
        <path class="st1" d="M12.83,18.79c-.1,0-.21-.03-.28-.1-.07-.07-.1-.17-.1-.28v-1.45c0-.21.17-.38.38-.38s.38.17.38.38v1.07h3.58v-1.07c0-.21.17-.38.38-.38h0c.21,0,.38.17.38.38v1.45c0,.1-.03.21-.1.28-.07.07-.17.1-.28.1h-4.34Z"/>
        <path class="st1" d="M15.2,14.41c-1.21,0-2.2-1-2.2-2.2s1-2.2,2.2-2.2,2.2,1,2.2,2.2-1,2.2-2.2,2.2ZM15.2,10.76c-.79,0-1.45.65-1.45,1.45s.65,1.45,1.45,1.45,1.45-.65,1.45-1.45-.65-1.45-1.45-1.45Z"/>
        <path class="st1" d="M13.76,9.66h-7.3c-.21,0-.38-.17-.38-.38v-2.65c0-.17.1-.31.28-.38l2.24-.72c.1-.03.24-.03.34.03l1.17.79,1.34-.79c.1-.07.21-.07.31-.03l2.07.72c.17.07.28.21.28.38v2.65c.03.21-.14.38-.34.38ZM6.87,8.9h6.51v-2l-1.65-.55-1.41.83c-.14.07-.28.07-.41,0l-1.24-.83-1.79.55v2h0Z"/>
        <path class="st1" d="M7.94,9.66c-.1,0-.21-.03-.28-.1-.07-.07-.1-.17-.1-.28v-1.45c0-.21.17-.38.38-.38s.38.17.38.38v1.07h3.58v-1.07c0-.21.17-.38.38-.38h0c.21,0,.38.17.38.38v1.45c0,.1-.03.21-.1.28-.07.07-.14.1-.24.1h-4.37Z"/>
        <path class="st1" d="M10.11,5.32c-1.21,0-2.2-1-2.2-2.2s1-2.2,2.2-2.2,2.2,1,2.2,2.2-1,2.2-2.2,2.2ZM10.11,1.67c-.79,0-1.45.65-1.45,1.45s.65,1.45,1.45,1.45,1.45-.65,1.45-1.45-.65-1.45-1.45-1.45Z"/>
        <path class="st1" d="M16.65,8.59c-.07,0-.14,0-.17-.03-.14-.07-.21-.21-.21-.34v-3.99h-2.89c-.21,0-.38-.17-.38-.38s.17-.38.38-.38h3.27c.21,0,.38.17.38.38v3.65l.48-.31c.17-.1.41-.07.55.1.14.17.07.41-.1.55l-1.1.72s-.14.03-.21.03Z"/>
        <path class="st1" d="M16.65,8.59c-.07,0-.14-.03-.21-.07l-1.1-.72c-.17-.1-.24-.34-.1-.55.1-.17.34-.24.55-.1l1.1.72c.17.1.24.34.1.55-.1.1-.21.17-.34.17Z"/>
        <path class="st1" d="M3.19,8.59c-.07,0-.14-.03-.21-.07l-1.1-.72c-.17-.1-.24-.34-.1-.55.1-.17.34-.24.55-.1l.48.31v-3.62c0-.21.17-.38.38-.38h3.27c.21,0,.38.17.38.38s-.17.38-.38.38h-2.89v3.99c0,.14-.07.28-.21.34-.03,0-.1.03-.17.03Z"/>
        <path class="st1" d="M3.19,8.59c-.14,0-.24-.07-.31-.17-.1-.17-.07-.41.1-.55l1.1-.72c.17-.1.41-.07.55.1.1.17.07.41-.1.55l-1.1.72c-.1.03-.17.07-.24.07Z"/>
        <path class="st1" d="M11.21,18.79h-2.55c-.21,0-.38-.17-.38-.38s.17-.38.38-.38h2.55c.21,0,.38.17.38.38s-.17.38-.38.38Z"/>
        <path class="st1" d="M12.28,14.41h-4.34c-.21,0-.38-.17-.38-.38v-3.65c0-.21.17-.38.38-.38h4.37c.21,0,.38.17.38.38v3.65c0,.21-.17.38-.41.38ZM8.32,13.62h3.58v-2.86h-3.58v2.86Z"/>
        <rect class="st1" x="8.66" y="11.83" width=".72" height=".72"/>
        <rect class="st1" x="9.73" y="11.83" width=".72" height=".72"/>
        <rect class="st1" x="10.83" y="11.83" width=".72" height=".72"/>
      </g>
    </g>
  </g>
</svg>