<?xml version="1.0" encoding="UTF-8"?>
<svg id="_레이어_1" xmlns="http://www.w3.org/2000/svg" version="1.1" viewBox="0 0 20 20">
  <!-- Generator: Adobe Illustrator 29.3.1, SVG Export Plug-In . SVG Version: 2.1.0 Build 151)  -->
  <defs>
    <style>
      .st0 {
        fill: #3fa979;
      }

      .st1 {
        opacity: .6;
      }
    </style>
  </defs>
  <g class="st1">
    <path class="st0" d="M4.5,11.8c0,0-.2-.1-.2,0,0,0-.2,0-.2.1l-2.2,3.6c0,.1,0,.2,0,.3l1.4,1.7-.8.7c-.1.1-.3,0-.4,0l-.8-1c-.1-.1,0-.3,0-.4h.1c.1-.2.1-.4,0-.5s-.3-.1-.4,0h-.1c-.4.5-.4,1,0,1.4l.8,1c.2.2.4.3.7.3s.3,0,.5-.1l1.1.5c.1,0,.3.1.5.1s.4,0,.5-.2l.5-.3c0,0,.1-.1.1-.2s0-.2-.1-.2l-.5-.4c-.1,0-.3,0-.4,0,0,.1,0,.3,0,.4h.2c0,.1-.1.2-.1.2-.1,0-.3,0-.4,0l-.8-.4.6-.5,4-1.7c0,0,.1-.1.2-.2s0-.2,0-.3l-3.4-3.9h0ZM3.8,17.2l-1.4-1.6,1.9-3.1,2.9,3.3-3.5,1.4h0Z"/>
    <path class="st0" d="M6.9,13.5c0,0,.1,0,.2,0l.4-.4c.1-.1.1-.3,0-.4s-.3-.1-.4,0l-.4.4c-.1.1-.1.3,0,.4,0,0,.1,0,.2,0Z"/>
    <path class="st0" d="M8.7,14.3h-.5c-.2.2-.3.3-.2.5,0,.1.1.2.3.2h.6c.2-.2.3-.3.2-.5,0-.2-.2-.3-.4-.2Z"/>
    <path class="st0" d="M5.5,12s0,0,.1,0c.1,0,.2,0,.3-.2l.2-.5c0-.1,0-.3-.1-.4-.1,0-.3,0-.4.1l-.2.5c0,.1,0,.3.1.4Z"/>
    <path class="st0" d="M18.4,8.6c-.3-.4-.6-.8-1-1.1-.1-.1-.3,0-.4,0-.1.1,0,.3,0,.4.3.2.6.5.8.9-.7.8-1.6,1.5-2.6,1.9h0c0-1.6-.6-2.9-1.7-3.8-.1-.1-.3,0-.4,0-.1.1,0,.3,0,.4,1,.8,1.5,2,1.5,3.2v.5h0c0,0,0,.1,0,.2,0,.1.2.2.3.2s0,0,.1,0c1.3-.5,2.4-1.3,3.3-2.4,0,0,0-.2,0-.2,0,0,0-.2,0-.3h0Z"/>
    <path class="st0" d="M16,2.2c.1,0,.3,0,.4,0,1.2,0,2.2,1,2.2,2.2s-1,2.2-2.2,2.2-.9-.1-1.2-.4c-.1,0-.3,0-.4,0s0,.3,0,.4c.5.3,1,.5,1.6.5,1.5,0,2.7-1.2,2.7-2.7s-1.2-2.7-2.7-2.7-.4,0-.6,0c-.2,0-.3.2-.2.4,0,.2.2.3.4.2h0Z"/>
    <path class="st0" d="M12.4,6.4c1.6,0,3-1.3,3-3S14,.5,12.4.5s-3,1.3-3,3,1.3,3,3,3ZM12.4,1.1c1.3,0,2.4,1.1,2.4,2.4s-1.1,2.4-2.4,2.4-2.4-1.1-2.4-2.4,1.1-2.4,2.4-2.4Z"/>
    <path class="st0" d="M13.1,11.4c-1,.1-1.9,0-2.9-.4v-.4c0-1.3.6-2.4,1.5-3.2.1-.1.1-.3,0-.4s-.3-.1-.4,0c-1.1.9-1.7,2.3-1.7,3.7v.2c-1-.5-1.8-1.1-2.6-1.9.2-.4.5-.7.8-.9.1-.1.1-.3,0-.4s-.3-.1-.4,0c-.4.3-.7.7-1,1.2,0,.1,0,.2,0,.3,0,0,0,.2,0,.2.8.9,1.9,1.7,3.1,2.2.9.4,1.8.6,2.7.6s.5,0,.7,0c.2,0,.3-.2.3-.3s-.2-.3-.3-.3h0Z"/>
    <path class="st0" d="M8.5,7.1c.6,0,1.1-.2,1.6-.5.1,0,.2-.3,0-.4,0-.1-.3-.2-.4,0-.4.3-.8.4-1.2.4-1.2,0-2.2-1-2.2-2.2s1-2.2,2.2-2.2.3,0,.4,0c.2,0,.3,0,.4-.2s0-.3-.2-.4c-.2,0-.4,0-.6,0-1.5,0-2.7,1.2-2.7,2.7s1.2,2.7,2.7,2.7h0Z"/>
  </g>
</svg>