<?xml version="1.0" encoding="UTF-8"?>
<svg id="_레이어_1" data-name="레이어_1" xmlns="http://www.w3.org/2000/svg" version="1.1" viewBox="0 0 20 20">
  <!-- Generator: Adobe Illustrator 29.3.1, SVG Export Plug-In . SVG Version: 2.1.0 Build 151)  -->
  <defs>
    <style>
      .st0 {
        opacity: .6;
      }

      .st1 {
        fill: #3fa979;
      }
    </style>
  </defs>
  <g class="st0">
    <path class="st1" d="M4.01,8.92c-.05-.06-.13-.09-.2-.08-.08,0-.14.05-.19.11l-1.86,3c-.06.09-.05.2.02.28l1.2,1.42-.66.55c-.11.09-.27.08-.36-.03l-.69-.81c-.09-.1-.08-.26.02-.35l.12-.11c.1-.09.11-.24.02-.34s-.24-.11-.34-.02l-.12.11c-.29.27-.32.72-.07,1.02l.69.81c.15.17.35.26.56.26.13,0,.26-.04.38-.11l.87.45c.12.06.25.1.38.1.16,0,.32-.05.45-.14l.4-.27c.07-.04.1-.12.11-.2s-.04-.15-.1-.2l-.44-.33c-.11-.08-.26-.06-.34.05-.08.11-.06.26.05.34l.17.12-.11.08c-.1.07-.23.07-.34.02l-.68-.36.5-.42,3.3-1.38c.07-.03.12-.09.14-.17.02-.08,0-.16-.05-.21l-2.83-3.21ZM3.4,13.39l-1.13-1.33,1.59-2.57,2.39,2.72-2.86,1.19Z"/>
    <path class="st1" d="M6.01,10.27c.06,0,.11-.02.16-.06l.35-.31c.1-.09.11-.24.02-.34-.09-.1-.24-.11-.34-.02l-.35.31c-.1.09-.11.24-.02.34.05.05.11.08.18.08Z"/>
    <path class="st1" d="M7.44,11.01l-.45.1c-.13.03-.21.16-.19.29.02.11.12.19.24.19.02,0,.03,0,.05,0l.45-.1c.13-.03.21-.16.19-.29-.03-.13-.16-.21-.29-.19Z"/>
    <path class="st1" d="M4.82,9.1s.07.02.1.02c.09,0,.18-.05.22-.14l.19-.42c.05-.12,0-.26-.12-.32-.12-.05-.26,0-.32.12l-.19.42c-.05.12,0,.26.12.32Z"/>
    <path class="st1" d="M18.73,11.24c-.21-.35-.48-.65-.79-.91-.1-.09-.26-.07-.34.03-.09.1-.07.25.03.34.25.2.46.44.63.71-.62.69-1.33,1.22-2.18,1.6v-.12c0-1.18-.52-2.3-1.43-3.06-.1-.09-.26-.07-.34.03-.09.1-.07.25.03.34.8.67,1.26,1.64,1.26,2.68v.43s0,.02,0,.03c0,.04,0,.08.01.12.04.09.13.15.22.15.03,0,.06,0,.09-.02,1.1-.44,2-1.07,2.76-1.95.05-.06.07-.13.05-.2.02-.07.02-.14-.02-.21Z"/>
    <path class="st1" d="M16.78,5.94c.12-.02.24-.04.36-.04.99,0,1.79.8,1.79,1.79s-.8,1.79-1.79,1.79c-.37,0-.73-.11-1.03-.33-.11-.08-.26-.05-.34.06s-.05.26.06.34c.38.27.84.42,1.31.42,1.25,0,2.27-1.02,2.27-2.27s-1.02-2.27-2.27-2.27c-.15,0-.31.02-.46.05-.13.03-.21.15-.19.29.03.13.15.22.29.19Z"/>
    <path class="st1" d="M13.79,9.4c1.35,0,2.45-1.1,2.45-2.45s-1.1-2.45-2.45-2.45-2.45,1.1-2.45,2.45,1.1,2.45,2.45,2.45ZM13.79,4.99c1.08,0,1.97.88,1.97,1.97s-.88,1.97-1.97,1.97-1.97-.88-1.97-1.97.88-1.97,1.97-1.97Z"/>
    <path class="st1" d="M14.34,13.55c-.8.09-1.61-.02-2.37-.31v-.34c0-1.04.46-2.02,1.26-2.68.1-.09.12-.24.03-.34-.09-.1-.24-.12-.34-.03-.91.76-1.43,1.87-1.43,3.06v.13c-.82-.4-1.53-.92-2.12-1.55.18-.29.41-.55.67-.77.1-.09.12-.24.03-.34-.09-.1-.24-.12-.34-.03-.34.28-.62.61-.83.99-.05.09-.04.19.02.27,0,.06.02.13.06.18.69.77,1.56,1.38,2.57,1.82.71.31,1.48.47,2.25.47.2,0,.4-.01.6-.03.13-.01.23-.13.21-.27s-.13-.23-.27-.21Z"/>
    <path class="st1" d="M10.54,9.96c.47,0,.93-.14,1.31-.42.11-.08.13-.23.06-.34-.08-.11-.23-.13-.34-.06-.3.21-.66.33-1.03.33-.99,0-1.79-.8-1.79-1.79s.8-1.79,1.79-1.79c.12,0,.24.01.36.04.13.03.26-.06.29-.19.03-.13-.06-.26-.19-.29-.15-.03-.3-.05-.46-.05-1.25,0-2.27,1.02-2.27,2.27,0,1.25,1.02,2.27,2.27,2.27Z"/>
  </g>
</svg>