<?xml version="1.0" encoding="UTF-8"?>
<svg id="_레이어_1" xmlns="http://www.w3.org/2000/svg" version="1.1" viewBox="0 0 20 20">
  <!-- Generator: Adobe Illustrator 29.3.1, SVG Export Plug-In . SVG Version: 2.1.0 Build 151)  -->
  <defs>
    <style>
      .st0 {
        fill: #3fa979;
      }
    </style>
  </defs>
  <g id="Layer_1">
    <path class="st0" d="M18.15,4.38H5.22c-.16,0-.28.13-.28.28v1.41H1.85c-.16,0-.28.13-.28.28v7.31c0,1.09.88,1.97,1.97,1.97h12.93c1.09,0,1.97-.88,1.97-1.97V4.66c0-.16-.13-.28-.28-.28h-.01ZM3.54,15.06c-.78,0-1.4-.63-1.41-1.41v-7.03h2.81v7.03c0,.78-.63,1.4-1.41,1.41h0ZM17.87,13.65c0,.78-.63,1.4-1.41,1.41H4.91c.38-.37.59-.88.59-1.41V4.94h12.37s0,8.71,0,8.71Z"/>
    <path class="st0" d="M2.97,7.19c-.16,0-.28.13-.28.28v6.46c0,.16.13.28.28.28s.28-.13.28-.28v-6.46c0-.16-.13-.28-.28-.28Z"/>
    <path class="st0" d="M4.1,7.19c-.16,0-.28.13-.28.28v6.46c0,.16.13.28.28.28s.28-.13.28-.28v-6.46c0-.16-.13-.28-.28-.28Z"/>
    <path class="st0" d="M14.22,6.35h2.81c.16,0,.28-.13.28-.28s-.13-.28-.28-.28h-2.81c-.16,0-.28.13-.28.28s.13.28.28.28Z"/>
    <path class="st0" d="M17.03,9.16h-4.22c-.16,0-.28.13-.28.28s.13.28.28.28h4.22c.16,0,.28-.13.28-.28s-.13-.28-.28-.28Z"/>
    <path class="st0" d="M17.03,10.28h-4.22c-.16,0-.28.13-.28.28s.13.28.28.28h4.22c.16,0,.28-.13.28-.28s-.13-.28-.28-.28Z"/>
    <path class="st0" d="M17.03,11.41h-4.22c-.16,0-.28.13-.28.28s.13.28.28.28h4.22c.16,0,.28-.13.28-.28s-.13-.28-.28-.28Z"/>
    <path class="st0" d="M17.03,12.53h-4.22c-.16,0-.28.13-.28.28s.13.28.28.28h4.22c.16,0,.28-.13.28-.28s-.13-.28-.28-.28Z"/>
    <path class="st0" d="M17.03,13.65h-4.22c-.16,0-.28.13-.28.28s.13.28.28.28h4.22c.16,0,.28-.13.28-.28s-.13-.28-.28-.28Z"/>
    <path class="st0" d="M6.35,6.35h2.81c.16,0,.28-.13.28-.28s-.13-.28-.28-.28h-2.81c-.16,0-.28.13-.28.28s.13.28.28.28Z"/>
    <path class="st0" d="M6.35,9.72h4.22c.16,0,.28-.13.28-.28s-.13-.28-.28-.28h-4.22c-.16,0-.28.13-.28.28s.13.28.28.28Z"/>
    <path class="st0" d="M6.35,10.84h4.22c.16,0,.28-.13.28-.28s-.13-.28-.28-.28h-4.22c-.16,0-.28.13-.28.28s.13.28.28.28Z"/>
    <path class="st0" d="M6.35,11.97h4.22c.16,0,.28-.13.28-.28s-.13-.28-.28-.28h-4.22c-.16,0-.28.13-.28.28s.13.28.28.28Z"/>
    <path class="st0" d="M6.35,13.09h4.22c.16,0,.28-.13.28-.28s-.13-.28-.28-.28h-4.22c-.16,0-.28.13-.28.28s.13.28.28.28Z"/>
    <path class="st0" d="M6.35,14.22h4.22c.16,0,.28-.13.28-.28s-.13-.28-.28-.28h-4.22c-.16,0-.28.13-.28.28s.13.28.28.28Z"/>
    <path class="st0" d="M6.35,8.03h10.68c.16,0,.28-.13.28-.28s-.13-.28-.28-.28H6.35c-.16,0-.28.13-.28.28s.13.28.28.28Z"/>
  </g>
</svg>