<?xml version="1.0" encoding="UTF-8"?>
<svg id="_레이어_1" xmlns="http://www.w3.org/2000/svg" version="1.1" viewBox="0 0 20 20">
  <!-- Generator: Adobe Illustrator 29.3.1, SVG Export Plug-In . SVG Version: 2.1.0 Build 151)  -->
  <defs>
    <style>
      .st0 {
        fill: #3fa979;
      }

      .st1 {
        opacity: .6;
      }
    </style>
  </defs>
  <g id="Layer_1" class="st1">
    <path class="st0" d="M18.1,4.4H5.2c-.2,0-.3.1-.3.3v1.4H1.9c-.2,0-.3.1-.3.3v7.3c0,1.1.9,2,2,2h12.9c1.1,0,2-.9,2-2V4.7c0-.2-.1-.3-.3-.3,0,0,0,0,0,0ZM3.5,15.1c-.8,0-1.4-.6-1.4-1.4v-7h2.8v7c0,.8-.6,1.4-1.4,1.4h0ZM17.9,13.6c0,.8-.6,1.4-1.4,1.4H4.9c.4-.4.6-.9.6-1.4V4.9h12.4s0,8.7,0,8.7Z"/>
    <path class="st0" d="M3,7.2c-.2,0-.3.1-.3.3v6.5c0,.2.1.3.3.3s.3-.1.3-.3v-6.5c0-.2-.1-.3-.3-.3Z"/>
    <path class="st0" d="M4.1,7.2c-.2,0-.3.1-.3.3v6.5c0,.2.1.3.3.3s.3-.1.3-.3v-6.5c0-.2-.1-.3-.3-.3Z"/>
    <path class="st0" d="M14.2,6.3h2.8c.2,0,.3-.1.3-.3s-.1-.3-.3-.3h-2.8c-.2,0-.3.1-.3.3s.1.3.3.3Z"/>
    <path class="st0" d="M17,9.2h-4.2c-.2,0-.3.1-.3.3s.1.3.3.3h4.2c.2,0,.3-.1.3-.3s-.1-.3-.3-.3Z"/>
    <path class="st0" d="M17,10.3h-4.2c-.2,0-.3.1-.3.3s.1.3.3.3h4.2c.2,0,.3-.1.3-.3s-.1-.3-.3-.3Z"/>
    <path class="st0" d="M17,11.4h-4.2c-.2,0-.3.1-.3.3s.1.3.3.3h4.2c.2,0,.3-.1.3-.3s-.1-.3-.3-.3Z"/>
    <path class="st0" d="M17,12.5h-4.2c-.2,0-.3.1-.3.3s.1.3.3.3h4.2c.2,0,.3-.1.3-.3s-.1-.3-.3-.3Z"/>
    <path class="st0" d="M17,13.6h-4.2c-.2,0-.3.1-.3.3s.1.3.3.3h4.2c.2,0,.3-.1.3-.3s-.1-.3-.3-.3Z"/>
    <path class="st0" d="M6.3,6.3h2.8c.2,0,.3-.1.3-.3s-.1-.3-.3-.3h-2.8c-.2,0-.3.1-.3.3s.1.3.3.3Z"/>
    <path class="st0" d="M6.3,9.7h4.2c.2,0,.3-.1.3-.3s-.1-.3-.3-.3h-4.2c-.2,0-.3.1-.3.3s.1.3.3.3Z"/>
    <path class="st0" d="M6.3,10.8h4.2c.2,0,.3-.1.3-.3s-.1-.3-.3-.3h-4.2c-.2,0-.3.1-.3.3s.1.3.3.3Z"/>
    <path class="st0" d="M6.3,12h4.2c.2,0,.3-.1.3-.3s-.1-.3-.3-.3h-4.2c-.2,0-.3.1-.3.3s.1.3.3.3Z"/>
    <path class="st0" d="M6.3,13.1h4.2c.2,0,.3-.1.3-.3s-.1-.3-.3-.3h-4.2c-.2,0-.3.1-.3.3s.1.3.3.3Z"/>
    <path class="st0" d="M6.3,14.2h4.2c.2,0,.3-.1.3-.3s-.1-.3-.3-.3h-4.2c-.2,0-.3.1-.3.3s.1.3.3.3Z"/>
    <path class="st0" d="M6.3,8h10.7c.2,0,.3-.1.3-.3s-.1-.3-.3-.3H6.3c-.2,0-.3.1-.3.3s.1.3.3.3Z"/>
  </g>
</svg>