<?xml version="1.0" encoding="UTF-8"?>
<svg id="_레이어_1" data-name="레이어_1" xmlns="http://www.w3.org/2000/svg" version="1.1" viewBox="0 0 20 20">
  <!-- Generator: Adobe Illustrator 29.3.1, SVG Export Plug-In . SVG Version: 2.1.0 Build 151)  -->
  <defs>
    <style>
      .st0 {
        fill: #3b9eaa;
        opacity: .7;
      }
    </style>
  </defs>
  <path class="st0" d="M3.29,19.21c-.16,0-.29-.13-.29-.29v-2.14h-.07c-.57,0-1.03-.46-1.03-1.03,0-.13.02-.26.07-.38l.03-.08-.08-.02c-.45-.12-.76-.53-.76-1s.31-.87.76-1l.08-.02-.03-.08c-.05-.12-.07-.25-.07-.38,0-.57.46-1.03,1.03-1.03h.07v-4.94H.86c-.16,0-.29-.13-.29-.29v-3.32c0-.16.13-.29.29-.29h2.14v-.07c0-.57.46-1.03,1.03-1.03.13,0,.26.02.38.07l.08.03.02-.08c.12-.45.53-.76,1-.76s.87.31,1,.76l.02.08.08-.03c.12-.05.25-.07.38-.07.57,0,1.03.46,1.03,1.03v.07h4.94V.79c0-.16.13-.29.29-.29h3.32c.16,0,.29.13.29.29v2.14h.07c.57,0,1.03.46,1.03,1.03,0,.13-.02.26-.07.38l-.03.08.08.02c.45.12.76.53.76,1s-.31.87-.76,1l-.08.02.03.08c.05.12.07.25.07.38,0,.57-.46,1.03-1.03,1.03h-.07v4.94h2.14c.16,0,.29.13.29.29v3.32c0,.16-.13.29-.29.29h-2.14v.07c0,.57-.46,1.03-1.03,1.03-.13,0-.26-.02-.38-.07l-.08-.03-.02.08c-.12.45-.53.76-1,.76s-.87-.31-1-.76l-.02-.08-.08.03c-.12.05-.25.07-.38.07-.57,0-1.03-.46-1.03-1.03v-.07h-4.94v2.14c0,.16-.13.29-.29.29h-3.32ZM3.59,18.62h2.73v-1.84h-2.73v1.84ZM13.61,14.71c.16,0,.29.13.29.29v2.58c0,.24.2.44.44.44s.44-.2.44-.44v-2.58c0-.16.13-.29.29-.29s.29.13.29.29v1.84c0,.24.2.44.44.44s.44-.2.44-.44V7.93h-2.73v1.92c0,.08-.03.15-.09.21l-1.43,1.43c-.36.36-.59.81-.67,1.3v.09s.78,0,.78,0c.16,0,.29.13.29.29v3.68c0,.24.2.44.44.44s.44-.2.44-.44v-1.84c0-.16.13-.29.29-.29ZM16.85,16.19h1.84v-2.73h-1.84v2.73ZM2.92,15.3c-.24,0-.44.2-.44.44s.2.44.44.44h8.92v-2.73h-1.92c-.08,0-.15-.03-.21-.09l-1.43-1.43c-.36-.36-.81-.59-1.3-.67h-.09s0,.78,0,.78c0,.16-.13.29-.29.29h-3.68c-.24,0-.44.2-.44.44s.2.44.44.44h1.84c.16,0,.29.13.29.29s-.13.29-.29.29h-2.58c-.24,0-.44.2-.44.44s.2.44.44.44h2.58c.16,0,.29.13.29.29s-.13.29-.29.29h-1.84ZM9.09,6.89c-.08.66-.37,1.26-.85,1.74l-1.34,1.34v.7h.06c.66.09,1.26.38,1.74.85l1.34,1.34h.7v-.06c.09-.66.38-1.26.85-1.74l1.34-1.34v-.7h-.06c-.66-.09-1.26-.38-1.74-.85l-1.34-1.34h-.7v.06ZM4.03,2.41c-.24,0-.44.2-.44.44v8.92h2.73v-1.92c0-.08.03-.15.09-.21l1.43-1.43c.36-.36.59-.8.66-1.3v-.09s-.78,0-.78,0c-.16,0-.29-.13-.29-.29v-3.68c0-.24-.2-.44-.44-.44s-.44.2-.44.44v1.84c0,.16-.13.29-.29.29s-.29-.13-.29-.29v-2.58c0-.24-.2-.44-.44-.44s-.44.2-.44.44v2.58c0,.16-.13.29-.29.29s-.29-.13-.29-.29v-1.84c0-.24-.2-.44-.44-.44ZM8.01,6.24h1.92c.08,0,.15.03.21.08.02.02,1.11,1.1,1.43,1.43.36.36.8.59,1.3.66h.09s0-.78,0-.78c0-.16.13-.29.29-.29h3.68c.24,0,.44-.2.44-.44s-.2-.44-.44-.44h-1.84c-.16,0-.29-.13-.29-.29s.13-.29.29-.29h2.58c.24,0,.44-.2.44-.44s-.2-.44-.44-.44h-2.58c-.16,0-.29-.13-.29-.29s.13-.29.29-.29h1.84c.24,0,.44-.2.44-.44s-.2-.44-.44-.44h-8.92v2.73ZM1.16,6.24h1.84v-2.73h-1.84v2.73ZM13.54,2.92h2.73v-1.84h-2.73v1.84Z"/>
</svg>