<?xml version="1.0" encoding="UTF-8"?>
<svg id="_레이어_1" data-name="레이어_1" xmlns="http://www.w3.org/2000/svg" version="1.1" viewBox="0 0 20 20">
  <!-- Generator: Adobe Illustrator 29.3.1, SVG Export Plug-In . SVG Version: 2.1.0 Build 151)  -->
  <defs>
    <style>
      .st0 {
        fill: #3b9eaa;
        fill-rule: evenodd;
        opacity: .7;
      }
    </style>
  </defs>
  <path class="st0" d="M7.86,5.75c2.61-2.47,5.01-3.77,6.82-4.04,1.3-.19,2.51.13,3.1,1.25-.43-1.23-1.64-1.66-2.96-1.59-2.03.1-4.77,1.34-7.58,3.93-.15.14-.4.1-.49-.12l-.23-.53-.43,2.5,2.57-.66-.69-.23c-.23-.07-.28-.37-.11-.52h0ZM10.1,11.88c-.56.05-1.09-.14-1.49-.47-.86-.73-.97-2.01-.24-2.87.73-.86,2.01-.97,2.87-.24.86.72.97,2.01.24,2.87-.34.4-.83.67-1.39.72h0ZM9,10.94c.6.51,1.51.43,2.01-.17.51-.6.43-1.51-.17-2.01-.6-.51-1.51-.43-2.01.17-.51.6-.43,1.51.17,2.01h0ZM14.02,7.79c-.15-.18-.45-.12-.52.11l-.23.69-.66-2.57,2.5.43-.53.23c-.21.09-.26.34-.12.49,2.58,2.81,3.83,5.55,3.93,7.58.07,1.32-.36,2.53-1.59,2.96,1.12-.59,1.45-1.8,1.25-3.1-.27-1.81-1.57-4.21-4.04-6.82h0ZM17.46,14.69c-.24-1.61-1.38-3.75-3.53-6.12l-.39,1.19c-.09.31-.52.29-.59,0l-1.03-4.05c-.05-.21.13-.41.35-.38l3.96.69c.3.05.35.46.07.58l-1.09.48c2.49,2.81,3.7,5.57,3.8,7.65.08,1.7-.58,3.21-2.26,3.64-1.22.31-2.89.02-4.96-1.1-.34-.17-.1-.7.25-.55,1.75.73,3.12.9,4.05.63,1.22-.35,1.55-1.41,1.37-2.64h0ZM11.99,13.95c-2.61,2.47-5.01,3.77-6.82,4.04-1.3.19-2.51-.13-3.1-1.25.43,1.23,1.64,1.66,2.96,1.59,2.03-.1,4.77-1.34,7.58-3.93.15-.14.4-.1.49.12l.23.53.43-2.5-2.57.66.69.23c.23.07.28.37.11.52h0ZM5.08,17.38c-1.24.18-2.3-.15-2.64-1.37-.26-.93-.09-2.3.63-4.05.15-.36-.38-.6-.55-.25-1.12,2.07-1.41,3.75-1.1,4.96.43,1.68,1.94,2.35,3.64,2.26,2.08-.1,4.83-1.31,7.65-3.8l.48,1.09c.12.28.53.23.58-.07l.69-3.96c.04-.22-.17-.4-.38-.35l-4.05,1.03c-.29.07-.32.5,0,.59l1.19.39c-2.36,2.16-4.51,3.3-6.12,3.53h0ZM5.83,11.91c.15.18.45.12.52-.11l.23-.69.66,2.57-2.5-.43.53-.23c.21-.09.26-.34.12-.49-2.58-2.81-3.83-5.55-3.93-7.58-.07-1.32.36-2.53,1.59-2.96-1.12.59-1.45,1.8-1.25,3.1.27,1.81,1.57,4.21,4.04,6.82h0ZM2.39,5.01c.24,1.61,1.38,3.75,3.53,6.12l.39-1.19c.09-.31.52-.29.59,0l1.03,4.05c.05.21-.13.41-.35.38l-3.96-.69c-.3-.05-.35-.46-.07-.58l1.09-.48C2.15,9.81.95,7.06.84,4.98c-.08-1.7.58-3.21,2.26-3.64,1.22-.31,2.89-.02,4.96,1.1.34.17.1.7-.25.55-1.75-.73-3.12-.9-4.05-.63-1.22.35-1.55,1.41-1.37,2.64h0ZM14.77,2.32c-1.61.24-3.75,1.38-6.12,3.53l1.19.39c.31.09.29.52,0,.59l-4.05,1.03c-.21.05-.41-.13-.38-.35l.69-3.96c.05-.3.46-.35.58-.07l.48,1.09c2.81-2.49,5.57-3.7,7.65-3.8,1.7-.08,3.21.58,3.64,2.26.31,1.22.02,2.89-1.1,4.96-.17.34-.7.1-.55-.25.73-1.75.9-3.12.63-4.05-.35-1.22-1.41-1.55-2.64-1.37h0Z"/>
</svg>