<?xml version="1.0" encoding="UTF-8"?>
<svg id="_레이어_1" data-name="레이어_1" xmlns="http://www.w3.org/2000/svg" version="1.1" viewBox="0 0 20 20">
  <!-- Generator: Adobe Illustrator 29.3.1, SVG Export Plug-In . SVG Version: 2.1.0 Build 151)  -->
  <defs>
    <style>
      .st0 {
        fill: #3b9eaa;
      }

      .st1 {
        opacity: .7;
      }
    </style>
  </defs>
  <g class="st1">
    <path class="st0" d="M17.52,12.27l.91-.91c.72-.72,1.02-1.75.8-2.75h0c-.03-.14-.14-.25-.29-.29-.54-.12-1.08-.09-1.59.08-.12-2.08-.99-4.01-2.47-5.5-1.6-1.6-3.73-2.48-6-2.48s-4.4.88-6,2.48C1.28,4.52.4,6.65.4,8.91s.88,4.4,2.48,6c.41.41.85.77,1.32,1.08-.54,1.37-.47,2.52.21,3.21.35.35.84.52,1.44.52.46,0,.99-.1,1.56-.31,1.14-.42,2.38-1.23,3.42-2.24.29-.07.57-.15.85-.25l.72,1.74c.05.12.15.2.28.23.02,0,.05,0,.07,0,.1,0,.2-.04.27-.11l.99-.99c.08-.08.12-.2.11-.32l-.25-1.83c.5-.33.97-.71,1.4-1.12l1.74,3.03c.06.1.16.17.28.19.02,0,.03,0,.05,0,.1,0,.2-.04.27-.11l1.12-1.12c.1-.1.14-.25.09-.39l-1.3-3.84ZM11.05,15.22l-1.34-.55.46-.46,1.31.18c-.15.27-.3.55-.43.83ZM11.92,13.68l-1.83-.25c-.12-.02-.24.02-.32.11l-.99.99c-.09.09-.13.22-.1.34.02.12.11.23.23.28l1.6.66c-.4.42-.95.82-1.62.82-.93,0-1.83-.77-2.53-2.16-.34-.68-.61-1.47-.8-2.32,1.09-.26,2.2-.39,3.33-.39,1.4,0,2.77.2,4.1.6-.39.42-.74.86-1.06,1.33h0ZM5.21,8.91c0-.86.07-1.7.2-2.49,1.13.27,2.3.41,3.47.41s2.34-.14,3.47-.41c.13.79.2,1.63.2,2.49,0,.07,0,.13,0,.2l-1.11-.37c-.14-.05-.29-.01-.39.09l-1.12,1.12c-.08.08-.12.2-.11.32.02.12.08.22.19.28l1.06.61c-.72-.11-1.46-.16-2.2-.16-1.17,0-2.34.14-3.47.41-.13-.79-.2-1.63-.2-2.49ZM8.88,1.19c.93,0,1.83.77,2.53,2.16.34.68.61,1.47.8,2.32-1.09.26-2.21.39-3.33.39s-2.24-.13-3.33-.39c.19-.86.46-1.64.8-2.32.7-1.4,1.59-2.16,2.53-2.16ZM13.6,11.73l-2.77-1.59.6-.6,3.26,1.1-1.09,1.09ZM15.29,10.04l-1.98-.67c0-.15,0-.3,0-.46,0-.93-.08-1.83-.22-2.69.89-.26,1.75-.6,2.57-1.01.58,1.06.92,2.28.94,3.57-.15.1-.29.22-.41.35l-.91.91ZM15.26,4.56c-.74.37-1.52.68-2.32.92-.21-.91-.49-1.74-.86-2.47-.3-.6-.64-1.11-1.02-1.51,1.72.51,3.2,1.61,4.19,3.06ZM6.69,1.5c-.37.4-.71.9-1.02,1.51-.36.73-.65,1.56-.86,2.47-.8-.24-1.57-.54-2.32-.92.99-1.45,2.47-2.55,4.19-3.06ZM2.1,5.21c.82.42,1.68.76,2.57,1.01-.15.85-.22,1.76-.22,2.69s.08,1.83.22,2.69c-.89.26-1.75.6-2.57,1.01-.6-1.1-.95-2.36-.95-3.7,0-1.34.34-2.6.95-3.7h0ZM2.5,13.26c.74-.37,1.52-.68,2.32-.92.21.91.49,1.74.86,2.47.3.6.64,1.11,1.02,1.51-1.72-.51-3.2-1.61-4.19-3.06ZM7.15,18.7c-1.01.37-1.81.36-2.2-.03-.43-.43-.46-1.27-.08-2.27,1.22.66,2.59,1.01,4.01,1.01.19,0,.38,0,.56-.02-.75.58-1.54,1.05-2.29,1.32h0ZM13.35,17.39l-.46.46-.55-1.34c.28-.13.56-.27.83-.43l.18,1.31ZM11.53,16.03c.52-1.28,1.29-2.45,2.27-3.43l2.93-2.93c.48-.48,1.14-.71,1.8-.63.07.66-.15,1.32-.63,1.8l-2.93,2.93c-.98.98-2.15,1.75-3.43,2.27h0ZM17.42,16.73l-1.59-2.77,1.09-1.09,1.1,3.26-.6.6Z"/>
  </g>
</svg>