<?xml version="1.0" encoding="UTF-8"?>
<svg id="_레이어_1" xmlns="http://www.w3.org/2000/svg" version="1.1" viewBox="0 0 20 20">
  <!-- Generator: Adobe Illustrator 29.3.1, SVG Export Plug-In . SVG Version: 2.1.0 Build 151)  -->
  <defs>
    <style>
      .st0 {
        fill: #3b9eaa;
      }
    </style>
  </defs>
  <g id="Layer_1">
    <path class="st0" d="M16.48,3.52c-.71,0-1.3.58-1.3,1.3v4.21c-.31.01-.6.14-.82.36l-2.42,2.42v5.97h4.21v-3.76l1.62-1.62v-7.59c0-.71-.58-1.3-1.3-1.3h0ZM17.13,12.13l-1.62,1.62v3.38h-2.92v-5.05l2.23-2.23c.11-.11.26-.17.42-.17.33,0,.59.27.59.59,0,.16-.06.31-.17.42l-1.35,1.35.46.46,1.35-1.35c.23-.23.36-.55.36-.88,0-.47-.26-.88-.65-1.09v-4.36c0-.36.29-.65.65-.65s.65.29.65.65v7.32h0Z"/>
    <path class="st0" d="M4.81,9.03v-4.21c0-.71-.58-1.3-1.3-1.3s-1.3.58-1.3,1.3v7.59l1.62,1.62v3.76h4.21v-5.97l-2.42-2.42c-.22-.22-.51-.35-.82-.36h.01ZM7.41,17.13h-2.92v-3.38l-1.62-1.62v-7.32c0-.36.29-.65.65-.65s.65.29.65.65v4.36c-.39.21-.65.62-.65,1.09,0,.33.13.64.36.88l1.35,1.35.46-.46-1.35-1.35c-.11-.11-.17-.26-.17-.42,0-.33.27-.59.59-.59.16,0,.31.06.42.17l2.23,2.23v5.05h0Z"/>
    <path class="st0" d="M8.38,3.19c0-.54-.44-.97-.97-.97s-.97.44-.97.97c0,.42.27.78.65.91v.84l1.3,1.3v.84h.65v-1.11l-1.3-1.3v-.57c.38-.13.65-.49.65-.91h0ZM7.41,2.87c.18,0,.32.15.32.32s-.15.32-.32.32-.32-.15-.32-.32.15-.32.32-.32Z"/>
    <path class="st0" d="M10.32,7.08v-2.98c.38-.13.65-.49.65-.91,0-.54-.44-.97-.97-.97s-.97.44-.97.97c0,.42.27.78.65.91v2.98h.65,0ZM10,2.87c.18,0,.32.15.32.32s-.15.32-.32.32-.32-.15-.32-.32.15-.32.32-.32Z"/>
    <path class="st0" d="M12.92,4.11c.38-.13.65-.49.65-.91,0-.54-.44-.97-.97-.97s-.97.44-.97.97c0,.42.27.78.65.91v.57l-1.3,1.3v1.11h.65v-.84l1.3-1.3v-.84h0ZM12.59,2.87c.18,0,.32.15.32.32s-.15.32-.32.32-.32-.15-.32-.32.15-.32.32-.32Z"/>
    <polygon class="st0" points="12.92 6.43 12.27 6.43 12.27 7.73 7.73 7.73 7.73 6.43 7.08 6.43 7.08 8.38 12.92 8.38 12.92 6.43"/>
  </g>
</svg>