<?xml version="1.0" encoding="UTF-8"?>
<svg id="svg519" xmlns="http://www.w3.org/2000/svg" viewBox="0 0 658.08 646.48">
  <defs>
    <style>
      .cls-1 {
        fill: none;
        stroke: #000;
        stroke-linecap: round;
        stroke-linejoin: round;
        stroke-width: 24px;
      }
    </style>
  </defs>
  <g id="g535">
    <path id="path537" class="cls-1" d="M222.5,340.88c-37.45,4.82-72.3,14.97-102.44,30.7,0,0-52.35,25.57-76.61,67.54-18.67,28.51-29.96,63.23-31.45,104.41,67.73,23.36,144.01,36.29,221.16,38.77"/>
  </g>
  <g id="g539">
    <path id="path541" class="cls-1" d="M222.53,340.88l21.26,57.94h42.01l21.3-58.01"/>
  </g>
  <g id="g543">
    <path id="path545" class="cls-1" d="M403.77,168.71v52.43c0,41.4-24.77,78.46-59.47,101.6-23.64,15.77-51.88,25.08-80.08,24.9-70.14-.44-139.55-57.25-139.55-126.5v-52.43"/>
  </g>
  <g id="g547">
    <path id="path549" class="cls-1" d="M403.77,168.71C422.58-44.21,124.66-25.52,124.66,136.84v31.87s51.44,6.54,50.89-45.02c26.34,26.47,62.62,45.02,117.52,45.02h110.69Z"/>
  </g>
  <g id="g551">
    <path id="path553" class="cls-1" d="M403.22,231.57c18.34-.66,32.04-14.52,36.82-30.85,4.71-16.05-7.69-32.05-24.42-32.03h-11.86"/>
  </g>
  <g id="g555">
    <path id="path557" class="cls-1" d="M264.8,582.75c10.56.04,21.08-.11,31.64-.44l16.08-44.62-26.71-138.88h-42.01l-26.71,138.88,16.08,44.62c10.56.33,21.08.47,31.64.44Z"/>
  </g>
  <g id="g559">
    <path id="path561" class="cls-1" d="M87.8,564.13v-61.19"/>
  </g>
  <g id="g563">
    <path id="path565" class="cls-1" d="M125.18,231.61c-17.93-.67-30.91-13.96-35.56-29.82-4.85-16.54,7.61-33.09,24.84-33.09h10.21"/>
  </g>
  <g id="g567">
    <path id="path569" class="cls-1" d="M399.09,511.05c0,46.95,26.19,87.77,64.81,108.61,17.46,9.46,37.45,14.82,58.67,14.82,68.21,0,123.51-55.27,123.51-123.43,0-49.29-28.93-91.86-70.76-111.61-16-7.56-33.86-11.79-52.75-11.79-68.21,0-123.48,55.27-123.48,123.4Z"/>
  </g>
  <g id="g571">
    <path id="path573" class="cls-1" d="M414.14,570.12c-38.32,6.86-77.89,10.92-117.7,12.19M307.1,340.81c56.51,7.26,110.33,29.24,149.45,65.97"/>
  </g>
  <g id="g575">
    <path id="path577" class="cls-1" d="M76.04,401.56l.22-.15"/>
  </g>
  <g id="g579">
    <path id="path581" d="M566.3,532.04c0,10.81-3.1,19.46-9.35,25.96-6.21,6.5-13.77,10.81-22.65,12.89v13.29c0,6.75-5.74,12.23-12.46,12.23s-12.24-5.48-12.24-12.23v-13.18c-5.52-1.28-10.52-3.32-14.98-6.13-4.57-2.92-7.74-5.47-9.57-7.7l-2.67-3.51c-11.33-14.79,7.3-30.56,18.16-19.17,1.31,1.35,2.7,3.03,4.31,4.78,4.53,5.04,11.18,5.84,16.59,5.84,10.23,0,15.38-4.2,15.38-12.67,0-3.03-1.97-5.37-5.85-7.05-3.87-1.64-8.58-3.14-14.1-4.45-5.55-1.31-11.11-3.1-16.62-5.29-5.55-2.23-10.27-6.02-14.14-11.43-3.87-5.4-5.81-12.27-5.81-20.55s2.67-15.73,7.89-22.42c5.15-6.61,12.6-11.1,21.63-12.85v-16.76c0-6.72,5.52-12.23,12.24-12.23s12.24,5.51,12.24,12.23v16.94c3.87.84,7.42,2.01,10.6,3.54,3.21,1.5,5.41,2.74,6.65,3.72l1.9,1.64c16.07,12.05.55,33.41-13.33,21.72-9.39-7.89-30.72-9.64-30.72,4.85,0,3.07,1.43,5.51,4.24,7.38,2.85,1.86,6.36,3.14,10.52,3.76,4.13.62,8.7,1.64,13.7,3.1,4.97,1.46,9.57,3.14,13.7,5.08,4.16,1.93,7.67,5.37,10.52,10.3,2.81,4.89,4.24,11.03,4.24,18.36"/>
  </g>
</svg>