<?xml version="1.0" encoding="UTF-8"?>
<svg id="Isolation_Mode" xmlns="http://www.w3.org/2000/svg" viewBox="0 0 660.44 631.02">
  <defs>
    <style>
      .cls-1 {
        fill: none;
        stroke: #000;
        stroke-miterlimit: 13.33;
        stroke-width: 27px;
      }
    </style>
  </defs>
  <g id="g4372">
    <g id="g4378">
      <path id="path4380" class="cls-1" d="M334.36,390.65c-20.77,0-37.6-16.84-37.6-37.6s16.84-37.6,37.6-37.6,37.6,16.84,37.6,37.6"/>
    </g>
    <g id="g4382">
      <path id="path4384" class="cls-1" d="M334.36,390.65c20.77,0,37.6,16.84,37.6,37.6s-16.84,37.6-37.6,37.6-37.6-16.84-37.6-37.6"/>
    </g>
    <g id="g4386">
      <path id="path4388" class="cls-1" d="M334.36,238.99v76.46"/>
    </g>
    <g id="g4390">
      <path id="path4392" class="cls-1" d="M334.36,465.86v76.46"/>
    </g>
    <g id="g4394">
      <path id="path4396" class="cls-1" d="M655.23,163.79h0c-31.15,0-56.4,25.25-56.4,56.4v18.8H69.89v-18.8c0-31.15-25.25-56.4-56.39-56.4h0"/>
    </g>
    <g id="g4398">
      <path id="path4400" class="cls-1" d="M69.89,617.52v-75.2h528.93v75.2"/>
    </g>
    <g id="g4402">
      <path id="path4404" class="cls-1" d="M69.89,238.99c20.77,0,37.6,16.84,37.6,37.6v228.12c0,20.77-16.84,37.6-37.6,37.6"/>
    </g>
    <g id="g4406">
      <path id="path4408" class="cls-1" d="M220.3,238.99c-20.77,0-37.6,16.84-37.6,37.6v228.12c0,20.77,16.84,37.6,37.6,37.6"/>
    </g>
    <g id="g4410">
      <path id="path4412" class="cls-1" d="M448.42,238.99c20.77,0,37.6,16.84,37.6,37.6v228.12c0,20.77-16.84,37.6-37.6,37.6"/>
    </g>
    <g id="g4414">
      <path id="path4416" class="cls-1" d="M597.88,238.05c-20.77,0-37.6,16.99-37.6,37.94v230.14c0,20.95,16.84,37.94,37.6,37.94"/>
    </g>
    <g id="g4418">
      <path id="path4420" class="cls-1" d="M13.49,617.52h641.73"/>
    </g>
    <g id="g4422">
      <path id="path4424" class="cls-1" d="M646.94,163.79H25.57v-75.2L336.26,13.88l310.68,74.7v75.2Z"/>
    </g>
    <g id="g4426">
      <path id="path4428" class="cls-1" d="M334.36,69.79v37.6"/>
    </g>
  </g>
</svg>