<?xml version="1.0" encoding="UTF-8"?>
<svg id="_레이어_1" data-name="레이어_1" xmlns="http://www.w3.org/2000/svg" version="1.1" viewBox="0 0 20 20">
  <!-- Generator: Adobe Illustrator 29.3.1, SVG Export Plug-In . SVG Version: 2.1.0 Build 151)  -->
  <defs>
    <style>
      .st0 {
        fill: #fff;
      }
    </style>
  </defs>
  <path class="st0" d="M4.31,11.96c-.18,0-.33-.15-.33-.33v-3.25c0-.18.15-.33.33-.33h1.63c.18,0,.33.15.33.33s-.15.33-.33.33h-1.3v2.92c0,.18-.15.33-.33.33Z"/>
  <path class="st0" d="M4.31,10.33c-.18,0-.33-.15-.33-.33s.15-.33.33-.33h.81c.18,0,.33.15.33.33s-.15.33-.33.33h-.81Z"/>
  <path class="st0" d="M10,19.28C4.88,19.28.72,15.12.72,10S4.88.72,10,.72s9.28,4.16,9.28,9.28-4.16,9.28-9.28,9.28ZM10,1.38C5.25,1.38,1.38,5.25,1.38,10s3.87,8.62,8.62,8.62,8.62-3.87,8.62-8.62S14.75,1.38,10,1.38Z"/>
  <path class="st0" d="M4.92,6.26c-.08,0-.15-.03-.21-.07-.07-.06-.11-.13-.12-.22,0-.09.02-.17.07-.24,1.31-1.63,3.25-2.56,5.33-2.56s4.03.93,5.33,2.56c.06.07.08.16.07.24,0,.09-.05.17-.12.22-.06.05-.13.07-.21.07-.1,0-.19-.05-.26-.12-1.18-1.47-2.94-2.32-4.82-2.32s-3.64.84-4.82,2.32c-.06.08-.16.12-.26.12Z"/>
  <path class="st0" d="M10,16.84c-1.89,0-3.65-.76-4.96-2.14-.06-.06-.09-.15-.09-.24,0-.09.04-.17.1-.23.06-.06.14-.09.23-.09.09,0,.18.04.24.1,1.18,1.25,2.77,1.93,4.48,1.93s3.3-.69,4.48-1.93c.06-.07.15-.1.24-.1.09,0,.17.03.23.09.06.06.1.14.1.23,0,.09-.03.17-.09.24-1.31,1.38-3.07,2.14-4.96,2.14Z"/>
  <path class="st0" d="M9.19,11.96c-.09,0-.17-.03-.23-.1l-1.06-1.06v.83c0,.18-.15.33-.33.33s-.33-.15-.33-.33v-3.25c0-.18.15-.33.33-.33h.81c.63,0,1.14.51,1.14,1.14,0,.57-.43,1.06-1,1.13l-.15.02,1.05,1.05c.13.13.13.34,0,.47-.06.06-.14.1-.23.1ZM7.89,9.67h.48c.27,0,.48-.22.48-.48s-.22-.48-.48-.48h-.48v.97Z"/>
  <path class="st0" d="M10.81,11.96c-.18,0-.33-.15-.33-.33v-3.25c0-.18.15-.33.33-.33h1.63c.18,0,.33.15.33.33s-.15.33-.33.33h-1.3v2.59h1.3c.18,0,.33.15.33.33s-.15.33-.33.33h-1.63Z"/>
  <path class="st0" d="M10.81,10.33c-.18,0-.33-.15-.33-.33s.15-.33.33-.33h.81c.18,0,.33.15.33.33s-.15.33-.33.33h-.81Z"/>
  <path class="st0" d="M14.07,11.96c-.18,0-.33-.15-.33-.33v-3.25c0-.18.15-.33.33-.33h1.63c.18,0,.33.15.33.33s-.15.33-.33.33h-1.3v2.59h1.3c.18,0,.33.15.33.33s-.15.33-.33.33h-1.63Z"/>
  <path class="st0" d="M14.07,10.33c-.18,0-.33-.15-.33-.33s.15-.33.33-.33h.81c.18,0,.33.15.33.33s-.15.33-.33.33h-.81Z"/>
</svg>