<svg width="20" height="20" viewBox="0 0 20 20" fill="none" xmlns="http://www.w3.org/2000/svg">
<path d="M2.11 19.0201V0.980117C2.11 0.780117 2.27 0.620117 2.47 0.620117H12.98C13.18 0.620117 13.34 0.780117 13.34 0.980117V4.83012C13.34 5.03012 13.5 5.19012 13.7 5.19012H17.55C17.75 5.19012 17.91 5.35012 17.91 5.55012V19.0301C17.91 19.2301 17.75 19.3901 17.55 19.3901H2.46C2.26 19.3901 2.1 19.2301 2.1 19.0301L2.11 19.0201ZM13.69 18.4801H16.98C17.18 18.4801 17.34 18.3201 17.34 18.1201V6.15012C17.34 5.95012 17.18 5.79012 16.98 5.79012H13.69C13.49 5.79012 13.33 5.95012 13.33 6.15012V18.1201C13.33 18.3201 13.49 18.4801 13.69 18.4801ZM10.02 18.4801H12.31C12.51 18.4801 12.67 18.3201 12.67 18.1201V1.63012C12.67 1.43012 12.51 1.27012 12.31 1.27012H3.13C2.93 1.27012 2.77 1.43012 2.77 1.63012V18.1301C2.77 18.3301 2.93 18.4901 3.13 18.4901H5.42C5.62 18.4901 5.78 18.3301 5.78 18.1301V15.4801C5.78 15.2801 5.94 15.1201 6.14 15.1201H9.32C9.52 15.1201 9.68 15.2801 9.68 15.4801V18.1301C9.68 18.3301 9.84 18.4901 10.04 18.4901L10.02 18.4801ZM6.77 18.4801H8.68C8.88 18.4801 9.04 18.3201 9.04 18.1201V16.1101C9.04 15.9101 8.88 15.7501 8.68 15.7501H6.77C6.57 15.7501 6.41 15.9101 6.41 16.1101V18.1201C6.41 18.3201 6.57 18.4801 6.77 18.4801Z" fill="#4D65AC"/>
<path d="M5.07 12H4.18V13.38H5.07V12Z" fill="#4D65AC"/>
<path d="M7.14 12H6.25V13.38H7.14V12Z" fill="#4D65AC"/>
<path d="M9.2 12H8.31V13.38H9.2V12Z" fill="#4D65AC"/>
<path d="M11.26 12H10.37V13.38H11.26V12Z" fill="#4D65AC"/>
<path d="M5.07 9.09961H4.18V10.4796H5.07V9.09961Z" fill="#4D65AC"/>
<path d="M7.14 9.09961H6.25V10.4796H7.14V9.09961Z" fill="#4D65AC"/>
<path d="M9.2 9.09961H8.31V10.4796H9.2V9.09961Z" fill="#4D65AC"/>
<path d="M11.26 9.09961H10.37V10.4796H11.26V9.09961Z" fill="#4D65AC"/>
<path d="M5.07 6.19043H4.18V7.57043H5.07V6.19043Z" fill="#4D65AC"/>
<path d="M7.14 6.19043H6.25V7.57043H7.14V6.19043Z" fill="#4D65AC"/>
<path d="M9.2 6.19043H8.31V7.57043H9.2V6.19043Z" fill="#4D65AC"/>
<path d="M11.26 6.19043H10.37V7.57043H11.26V6.19043Z" fill="#4D65AC"/>
<path d="M5.07 3.28027H4.18V4.66027H5.07V3.28027Z" fill="#4D65AC"/>
<path d="M7.14 3.28027H6.25V4.66027H7.14V3.28027Z" fill="#4D65AC"/>
<path d="M9.2 3.28027H8.31V4.66027H9.2V3.28027Z" fill="#4D65AC"/>
<path d="M11.26 3.28027H10.37V4.66027H11.26V3.28027Z" fill="#4D65AC"/>
<path d="M15.61 15.9502H14.72V17.3302H15.61V15.9502Z" fill="#4D65AC"/>
<path d="M15.61 13.04H14.72V14.42H15.61V13.04Z" fill="#4D65AC"/>
<path d="M15.61 10.1299H14.72V11.5099H15.61V10.1299Z" fill="#4D65AC"/>
<path d="M15.61 7.23047H14.72V8.61047H15.61V7.23047Z" fill="#4D65AC"/>
</svg>
