<?xml version="1.0" encoding="UTF-8"?>
<svg id="_레이어_1" data-name="레이어_1" xmlns="http://www.w3.org/2000/svg" version="1.1" viewBox="0 0 20 20">
  <!-- Generator: Adobe Illustrator 29.3.1, SVG Export Plug-In . SVG Version: 2.1.0 Build 151)  -->
  <defs>
    <style>
      .st0 {
        fill: #fff;
      }
    </style>
  </defs>
  <path class="st0" d="M14.62,19.31H5.38c-.13,0-.23-.1-.23-.23V2.04c0-.13.1-.23.23-.23h1.77c.13,0,.23-.1.23-.23v-.65c0-.13.1-.23.23-.23h4.77c.13,0,.23.1.23.23v.65c0,.13.1.23.23.23h1.77c.13,0,.23.1.23.23v17.03c0,.13-.1.23-.23.23ZM6.16,18.53h7.68c.13,0,.23-.1.23-.23V2.63c0-.13-.1-.23-.23-.23h-1.55c-.13,0-.23-.1-.23-.23v-.66c0-.13-.1-.23-.23-.23h-3.66c-.13,0-.23.1-.23.23v.59c0,.13-.1.23-.23.23h-1.55c-.13,0-.23.1-.23.23v15.74c0,.13.1.23.23.23Z"/>
  <path class="st0" d="M5.54,19.31H.93c-.13,0-.23-.1-.23-.23V5.99c0-.1.06-.18.15-.22l4.56-1.71.27.73-4.06,1.52c-.09.03-.15.12-.15.22v11.77c0,.13.1.23.23.23h3.84v.78Z"/>
  <path class="st0" d="M19.31,19.07c0,.13-.1.23-.23.23h-4.62v-.78h3.84c.13,0,.23-.1.23-.23V6.53c0-.1-.06-.18-.15-.22l-4.06-1.52.27-.73,4.56,1.71c.09.03.15.12.15.22v13.08Z"/>
  <rect class="st0" x="7.38" y="3.87" width=".78" height="1.67"/>
  <rect class="st0" x="9.61" y="3.87" width=".78" height="1.67"/>
  <rect class="st0" x="11.84" y="3.87" width=".78" height="1.67"/>
  <rect class="st0" x="7.38" y="6.66" width=".78" height="1.67"/>
  <rect class="st0" x="9.61" y="6.66" width=".78" height="1.67"/>
  <rect class="st0" x="11.84" y="6.66" width=".78" height="1.67"/>
  <rect class="st0" x="7.38" y="9.44" width=".78" height="1.67"/>
  <rect class="st0" x="9.61" y="9.44" width=".78" height="1.67"/>
  <rect class="st0" x="11.84" y="9.44" width=".78" height="1.67"/>
  <path class="st0" d="M11.83,19.31h-3.66c-.13,0-.23-.1-.23-.23v-5.89c0-.13.1-.23.23-.23h3.66c.13,0,.23.1.23.23v5.89c0,.13-.1.23-.23.23ZM8.7,18.53h2.61c.13,0,.23-.1.23-.23v-4.55c0-.13-.1-.23-.23-.23h-2.61c-.13,0-.23.1-.23.23v4.55c0,.13.1.23.23.23Z"/>
  <rect class="st0" x="2.92" y="7.21" width=".78" height="10.03"/>
  <rect class="st0" x="16.3" y="7.21" width=".78" height="10.03"/>
</svg>