<?xml version="1.0" encoding="UTF-8"?>
<svg id="_레이어_1" data-name="레이어_1" xmlns="http://www.w3.org/2000/svg" version="1.1" viewBox="0 0 20 20">
  <!-- Generator: Adobe Illustrator 29.3.1, SVG Export Plug-In . SVG Version: 2.1.0 Build 151)  -->
  <defs>
    <style>
      .st0 {
        fill: #fff;
      }
    </style>
  </defs>
  <rect class="st0" x="9.56" y="15.49" width=".83" height="1.31" rx=".22" ry=".22"/>
  <rect class="st0" x="9.56" y="12.09" width=".83" height="1.31" rx=".22" ry=".22"/>
  <rect class="st0" x="9.56" y="8.69" width=".83" height="1.31" rx=".22" ry=".22"/>
  <rect class="st0" x="9.56" y="5.29" width=".83" height="1.31" rx=".22" ry=".22"/>
  <rect class="st0" x="12.38" y="15.49" width=".83" height="1.31" rx=".22" ry=".22"/>
  <rect class="st0" x="12.38" y="12.09" width=".83" height="1.31" rx=".22" ry=".22"/>
  <rect class="st0" x="12.38" y="8.69" width=".83" height="1.31" rx=".22" ry=".22"/>
  <rect class="st0" x="12.38" y="5.29" width=".83" height="1.31" rx=".22" ry=".22"/>
  <rect class="st0" x="6.74" y="15.49" width=".83" height="1.31" rx=".22" ry=".22"/>
  <rect class="st0" x="6.74" y="12.09" width=".83" height="1.31" rx=".22" ry=".22"/>
  <rect class="st0" x="6.74" y="8.69" width=".83" height="1.31" rx=".22" ry=".22"/>
  <rect class="st0" x="6.74" y="5.29" width=".83" height="1.31" rx=".22" ry=".22"/>
  <path class="st0" d="M4.15,19.29V2.96c0-.12.1-.22.22-.22h.97c.12,0,.22-.1.22-.22V.71c0-.12.1-.22.22-.22h8.43c.12,0,.22.1.22.22v1.81c0,.12.1.22.22.22h.97c.12,0,.22.1.22.22v16.33c0,.12-.1.22-.22.22H4.38c-.12,0-.22-.1-.22-.22ZM5.07,18.89h9.87c.12,0,.22-.1.22-.22V3.58c0-.12-.1-.22-.22-.22H5.07c-.12,0-.22.1-.22.22v15.09c0,.12.1.22.22.22ZM6.42,2.74h7.16c.12,0,.22-.1.22-.22v-1.26c0-.12-.1-.22-.22-.22h-7.16c-.12,0-.22.1-.22.22v1.26c0,.12.1.22.22.22Z"/>
</svg>