<svg width="20" height="20" viewBox="0 0 20 20" fill="none" xmlns="http://www.w3.org/2000/svg">
<path d="M10.17 15.4902H9.78C9.6585 15.4902 9.56 15.5887 9.56 15.7102V16.5802C9.56 16.7017 9.6585 16.8002 9.78 16.8002H10.17C10.2915 16.8002 10.39 16.7017 10.39 16.5802V15.7102C10.39 15.5887 10.2915 15.4902 10.17 15.4902Z" fill="#718EB4"/>
<path d="M10.17 12.0898H9.78C9.6585 12.0898 9.56 12.1883 9.56 12.3098V13.1798C9.56 13.3013 9.6585 13.3998 9.78 13.3998H10.17C10.2915 13.3998 10.39 13.3013 10.39 13.1798V12.3098C10.39 12.1883 10.2915 12.0898 10.17 12.0898Z" fill="#718EB4"/>
<path d="M10.17 8.69043H9.78C9.6585 8.69043 9.56 8.78893 9.56 8.91043V9.78043C9.56 9.90193 9.6585 10.0004 9.78 10.0004H10.17C10.2915 10.0004 10.39 9.90193 10.39 9.78043V8.91043C10.39 8.78893 10.2915 8.69043 10.17 8.69043Z" fill="#718EB4"/>
<path d="M10.17 5.29004H9.78C9.6585 5.29004 9.56 5.38854 9.56 5.51004V6.38004C9.56 6.50154 9.6585 6.60004 9.78 6.60004H10.17C10.2915 6.60004 10.39 6.50154 10.39 6.38004V5.51004C10.39 5.38854 10.2915 5.29004 10.17 5.29004Z" fill="#718EB4"/>
<path d="M12.99 15.4902H12.6C12.4785 15.4902 12.38 15.5887 12.38 15.7102V16.5802C12.38 16.7017 12.4785 16.8002 12.6 16.8002H12.99C13.1115 16.8002 13.21 16.7017 13.21 16.5802V15.7102C13.21 15.5887 13.1115 15.4902 12.99 15.4902Z" fill="#718EB4"/>
<path d="M12.99 12.0898H12.6C12.4785 12.0898 12.38 12.1883 12.38 12.3098V13.1798C12.38 13.3013 12.4785 13.3998 12.6 13.3998H12.99C13.1115 13.3998 13.21 13.3013 13.21 13.1798V12.3098C13.21 12.1883 13.1115 12.0898 12.99 12.0898Z" fill="#718EB4"/>
<path d="M12.99 8.69043H12.6C12.4785 8.69043 12.38 8.78893 12.38 8.91043V9.78043C12.38 9.90193 12.4785 10.0004 12.6 10.0004H12.99C13.1115 10.0004 13.21 9.90193 13.21 9.78043V8.91043C13.21 8.78893 13.1115 8.69043 12.99 8.69043Z" fill="#718EB4"/>
<path d="M12.99 5.29004H12.6C12.4785 5.29004 12.38 5.38854 12.38 5.51004V6.38004C12.38 6.50154 12.4785 6.60004 12.6 6.60004H12.99C13.1115 6.60004 13.21 6.50154 13.21 6.38004V5.51004C13.21 5.38854 13.1115 5.29004 12.99 5.29004Z" fill="#718EB4"/>
<path d="M7.35 15.4902H6.96C6.8385 15.4902 6.74 15.5887 6.74 15.7102V16.5802C6.74 16.7017 6.8385 16.8002 6.96 16.8002H7.35C7.4715 16.8002 7.57 16.7017 7.57 16.5802V15.7102C7.57 15.5887 7.4715 15.4902 7.35 15.4902Z" fill="#718EB4"/>
<path d="M7.35 12.0898H6.96C6.8385 12.0898 6.74 12.1883 6.74 12.3098V13.1798C6.74 13.3013 6.8385 13.3998 6.96 13.3998H7.35C7.4715 13.3998 7.57 13.3013 7.57 13.1798V12.3098C7.57 12.1883 7.4715 12.0898 7.35 12.0898Z" fill="#718EB4"/>
<path d="M7.35 8.69043H6.96C6.8385 8.69043 6.74 8.78893 6.74 8.91043V9.78043C6.74 9.90193 6.8385 10.0004 6.96 10.0004H7.35C7.4715 10.0004 7.57 9.90193 7.57 9.78043V8.91043C7.57 8.78893 7.4715 8.69043 7.35 8.69043Z" fill="#718EB4"/>
<path d="M7.35 5.29004H6.96C6.8385 5.29004 6.74 5.38854 6.74 5.51004V6.38004C6.74 6.50154 6.8385 6.60004 6.96 6.60004H7.35C7.4715 6.60004 7.57 6.50154 7.57 6.38004V5.51004C7.57 5.38854 7.4715 5.29004 7.35 5.29004Z" fill="#718EB4"/>
<path d="M4.15 19.2902V2.96023C4.15 2.84023 4.25 2.74023 4.37 2.74023H5.34C5.46 2.74023 5.56 2.64023 5.56 2.52023V0.710234C5.56 0.590234 5.66 0.490234 5.78 0.490234H14.21C14.33 0.490234 14.43 0.590234 14.43 0.710234V2.52023C14.43 2.64023 14.53 2.74023 14.65 2.74023H15.62C15.74 2.74023 15.84 2.84023 15.84 2.96023V19.2902C15.84 19.4102 15.74 19.5102 15.62 19.5102H4.38C4.26 19.5102 4.16 19.4102 4.16 19.2902H4.15ZM5.07 18.8902H14.94C15.06 18.8902 15.16 18.7902 15.16 18.6702V3.58023C15.16 3.46023 15.06 3.36023 14.94 3.36023H5.07C4.95 3.36023 4.85 3.46023 4.85 3.58023V18.6702C4.85 18.7902 4.95 18.8902 5.07 18.8902ZM6.42 2.74023H13.58C13.7 2.74023 13.8 2.64023 13.8 2.52023V1.26023C13.8 1.14023 13.7 1.04023 13.58 1.04023H6.42C6.3 1.04023 6.2 1.14023 6.2 1.26023V2.52023C6.2 2.64023 6.3 2.74023 6.42 2.74023Z" fill="#718EB4"/>
</svg>
