<svg width="20" height="20" viewBox="0 0 20 20" fill="none" xmlns="http://www.w3.org/2000/svg">
<g clip-path="url(#clip0_256_121)">
<path d="M14.62 19.3102H5.38C5.25 19.3102 5.15 19.2102 5.15 19.0802V2.0402C5.15 1.9102 5.25 1.8102 5.38 1.8102H7.15C7.28 1.8102 7.38 1.7102 7.38 1.5802V0.930195C7.38 0.800195 7.48 0.700195 7.61 0.700195H12.38C12.51 0.700195 12.61 0.800195 12.61 0.930195V1.5802C12.61 1.7102 12.71 1.8102 12.84 1.8102H14.61C14.74 1.8102 14.84 1.9102 14.84 2.0402V19.0702C14.84 19.2002 14.74 19.3002 14.61 19.3002L14.62 19.3102ZM6.16 18.5302H13.84C13.97 18.5302 14.07 18.4302 14.07 18.3002V2.6302C14.07 2.5002 13.97 2.4002 13.84 2.4002H12.29C12.16 2.4002 12.06 2.3002 12.06 2.1702V1.5102C12.06 1.3802 11.96 1.2802 11.83 1.2802H8.17C8.04 1.2802 7.94 1.3802 7.94 1.5102V2.1002C7.94 2.2302 7.84 2.3302 7.71 2.3302H6.16C6.03 2.3302 5.93 2.4302 5.93 2.5602V18.3002C5.93 18.4302 6.03 18.5302 6.16 18.5302Z" fill="#1F2B63"/>
<path d="M5.54 19.3096H0.929997C0.799997 19.3096 0.699997 19.2096 0.699997 19.0796V5.98957C0.699997 5.88957 0.759997 5.80957 0.849997 5.76957L5.41 4.05957L5.68 4.78957L1.62 6.30957C1.53 6.33957 1.47 6.42957 1.47 6.52957V18.2996C1.47 18.4296 1.57 18.5296 1.7 18.5296H5.54V19.3096Z" fill="#1F2B63"/>
<path d="M19.31 19.0696C19.31 19.1996 19.21 19.2996 19.08 19.2996H14.46V18.5196H18.3C18.43 18.5196 18.53 18.4196 18.53 18.2896V6.52957C18.53 6.42957 18.47 6.34957 18.38 6.30957L14.32 4.78957L14.59 4.05957L19.15 5.76957C19.24 5.79957 19.3 5.88957 19.3 5.98957V19.0696H19.31Z" fill="#1F2B63"/>
<path d="M8.16 3.87012H7.38V5.54012H8.16V3.87012Z" fill="#1F2B63"/>
<path d="M10.39 3.87012H9.61V5.54012H10.39V3.87012Z" fill="#1F2B63"/>
<path d="M12.62 3.87012H11.84V5.54012H12.62V3.87012Z" fill="#1F2B63"/>
<path d="M8.16 6.66016H7.38V8.33016H8.16V6.66016Z" fill="#1F2B63"/>
<path d="M10.39 6.66016H9.61V8.33016H10.39V6.66016Z" fill="#1F2B63"/>
<path d="M12.62 6.66016H11.84V8.33016H12.62V6.66016Z" fill="#1F2B63"/>
<path d="M8.16 9.44043H7.38V11.1104H8.16V9.44043Z" fill="#1F2B63"/>
<path d="M10.39 9.44043H9.61V11.1104H10.39V9.44043Z" fill="#1F2B63"/>
<path d="M12.62 9.44043H11.84V11.1104H12.62V9.44043Z" fill="#1F2B63"/>
<path d="M11.83 19.31H8.17C8.04 19.31 7.94 19.21 7.94 19.08V13.19C7.94 13.06 8.04 12.96 8.17 12.96H11.83C11.96 12.96 12.06 13.06 12.06 13.19V19.08C12.06 19.21 11.96 19.31 11.83 19.31ZM8.7 18.53H11.31C11.44 18.53 11.54 18.43 11.54 18.3V13.75C11.54 13.62 11.44 13.52 11.31 13.52H8.7C8.57 13.52 8.47 13.62 8.47 13.75V18.3C8.47 18.43 8.57 18.53 8.7 18.53Z" fill="#1F2B63"/>
<path d="M3.7 7.20996H2.92V17.24H3.7V7.20996Z" fill="#1F2B63"/>
<path d="M17.08 7.20996H16.3V17.24H17.08V7.20996Z" fill="#1F2B63"/>
</g>
<defs>
<clipPath id="clip0_256_121">
<rect width="20" height="20" fill="white"/>
</clipPath>
</defs>
</svg>
