<?xml version="1.0" encoding="UTF-8"?>
<svg id="_레이어_1" data-name="레이어_1" xmlns="http://www.w3.org/2000/svg" version="1.1" viewBox="0 0 20 20">
  <!-- Generator: Adobe Illustrator 29.3.1, SVG Export Plug-In . SVG Version: 2.1.0 Build 151)  -->
  <defs>
    <style>
      .st0 {
        fill: #fff;
      }
    </style>
  </defs>
  <path class="st0" d="M2.11,19.02V.98c0-.2.16-.36.36-.36h10.51c.2,0,.36.16.36.36v3.85c0,.2.16.36.36.36h3.85c.2,0,.36.16.36.36v13.48c0,.2-.16.36-.36.36H2.46c-.2,0-.36-.16-.36-.36ZM13.69,18.48h3.29c.2,0,.36-.16.36-.36V6.15c0-.2-.16-.36-.36-.36h-3.29c-.2,0-.36.16-.36.36v11.97c0,.2.16.36.36.36ZM10.02,18.48h2.29c.2,0,.36-.16.36-.36V1.63c0-.2-.16-.36-.36-.36H3.13c-.2,0-.36.16-.36.36v16.5c0,.2.16.36.36.36h2.29c.2,0,.36-.16.36-.36v-2.65c0-.2.16-.36.36-.36h3.18c.2,0,.36.16.36.36v2.65c0,.2.16.36.36.36ZM6.77,18.48h1.91c.2,0,.36-.16.36-.36v-2.01c0-.2-.16-.36-.36-.36h-1.91c-.2,0-.36.16-.36.36v2.01c0,.2.16.36.36.36Z"/>
  <rect class="st0" x="4.18" y="12" width=".89" height="1.38"/>
  <rect class="st0" x="6.25" y="12" width=".89" height="1.38"/>
  <rect class="st0" x="8.31" y="12" width=".89" height="1.38"/>
  <rect class="st0" x="10.37" y="12" width=".89" height="1.38"/>
  <rect class="st0" x="4.18" y="9.1" width=".89" height="1.38"/>
  <rect class="st0" x="6.25" y="9.1" width=".89" height="1.38"/>
  <rect class="st0" x="8.31" y="9.1" width=".89" height="1.38"/>
  <rect class="st0" x="10.37" y="9.1" width=".89" height="1.38"/>
  <rect class="st0" x="4.18" y="6.19" width=".89" height="1.38"/>
  <rect class="st0" x="6.25" y="6.19" width=".89" height="1.38"/>
  <rect class="st0" x="8.31" y="6.19" width=".89" height="1.38"/>
  <rect class="st0" x="10.37" y="6.19" width=".89" height="1.38"/>
  <rect class="st0" x="4.18" y="3.28" width=".89" height="1.38"/>
  <rect class="st0" x="6.25" y="3.28" width=".89" height="1.38"/>
  <rect class="st0" x="8.31" y="3.28" width=".89" height="1.38"/>
  <rect class="st0" x="10.37" y="3.28" width=".89" height="1.38"/>
  <rect class="st0" x="14.72" y="15.95" width=".89" height="1.38"/>
  <rect class="st0" x="14.72" y="13.04" width=".89" height="1.38"/>
  <rect class="st0" x="14.72" y="10.13" width=".89" height="1.38"/>
  <rect class="st0" x="14.72" y="7.23" width=".89" height="1.38"/>
</svg>