<?xml version="1.0" encoding="UTF-8"?>
<svg id="Line_Expand" xmlns="http://www.w3.org/2000/svg" viewBox="0 0 62.3 62.3">
  <path d="M1.15,62.3c-.07,0-.15,0-.22-.02-.62-.12-1.03-.73-.91-1.35l4.98-25.89V1.15c0-.63.52-1.15,1.15-1.15h50c.63,0,1.15.52,1.15,1.15v33.89l4.98,25.89c.01.07.02.15.02.22,0,.63-.52,1.15-1.15,1.15h0H1.15ZM2.54,60h57.22l-4.53-23.7H7.1l-4.56,23.7ZM7.3,34h47.7V2.3H7.3v31.7Z"/>
  <path d="M12.15,43.3c-.63,0-1.15-.52-1.15-1.15s.52-1.15,1.15-1.15h17c.63,0,1.15.52,1.15,1.15s-.52,1.15-1.15,1.15H12.15Z"/>
  <path d="M11.15,50.3c-.63,0-1.15-.52-1.15-1.15s.52-1.15,1.15-1.15h18c.63,0,1.15.52,1.15,1.15s-.52,1.15-1.15,1.15H11.15Z"/>
  <path d="M36.15,55.3c-.63,0-1.15-.52-1.15-1.15v-8c0-.63.52-1.15,1.15-1.15h14.99c.55,0,1.02.39,1.13.93l1.54,8c.01.07.02.14.02.22,0,.31-.12.6-.34.81-.22.22-.51.34-.81.34h-16.53ZM37.3,53h13.98l-1.1-5.7h-12.89v5.7Z"/>
  <path d="M17.15,29.3c-.63,0-1.15-.52-1.15-1.15v-.96l-.42-.13c-2.14-.69-3.58-2.66-3.58-4.91,0-.63.52-1.15,1.15-1.15s1.15.52,1.15,1.15c0,1.57,1.28,2.85,2.85,2.85s2.85-1.28,2.85-2.85-1.28-2.85-2.85-2.85c-2.25,0-4.22-1.44-4.9-3.58-.86-2.71.63-5.61,3.34-6.47l.42-.13v-.96c0-.63.52-1.15,1.15-1.15s1.15.52,1.15,1.15v.96l.42.13c2.14.69,3.58,2.66,3.58,4.91,0,.63-.52,1.15-1.15,1.15s-1.15-.52-1.15-1.15c0-1.57-1.28-2.85-2.85-2.85-1.57,0-2.85,1.28-2.85,2.85s1.28,2.85,2.85,2.85c2.25,0,4.22,1.44,4.91,3.58.42,1.31.3,2.71-.33,3.93-.63,1.22-1.7,2.13-3.01,2.55l-.42.13v.96c0,.63-.52,1.15-1.15,1.15Z"/>
  <path d="M28.15,29.3c-.63,0-1.15-.52-1.15-1.15s.52-1.15,1.15-1.15h21c.63,0,1.15.52,1.15,1.15s-.52,1.15-1.15,1.15h-21Z"/>
  <path d="M28.15,22.3c-.63,0-1.15-.52-1.15-1.15s.52-1.15,1.15-1.15h21c.63,0,1.15.52,1.15,1.15s-.52,1.15-1.15,1.15h-21Z"/>
  <path d="M28.15,15.3c-.63,0-1.15-.52-1.15-1.15s.52-1.15,1.15-1.15h21c.63,0,1.15.52,1.15,1.15s-.52,1.15-1.15,1.15h-21Z"/>
</svg>