<?xml version="1.0" encoding="UTF-8"?>
<svg id="_레이어_1" data-name="레이어_1" xmlns="http://www.w3.org/2000/svg" version="1.1" viewBox="0 0 20 20">
  <!-- Generator: Adobe Illustrator 29.3.1, SVG Export Plug-In . SVG Version: 2.1.0 Build 151)  -->
  <defs>
    <style>
      .st0 {
        opacity: .6;
      }

      .st1 {
        fill: #98844f;
      }
    </style>
  </defs>
  <g class="st0">
    <path class="st1" d="M15.22,15.99c-.15,0-.27.12-.27.27v.57c0,.75-.61,1.35-1.35,1.35H3.83c.32-.29.57-.71.57-1.28v-2.68c0-.15-.12-.27-.27-.27s-.27.12-.27.27v2.68c0,1.05-1.18,1.27-1.23,1.28,0,0-.02,0-.02,0-.02,0-.05-.01-.07-.01-.59,0-1.06-.48-1.06-1.06v-1.79h1.48c.15,0,.27-.12.27-.27s-.12-.27-.27-.27h-1.75c-.15,0-.27.12-.27.27v2.06c0,.89.72,1.61,1.61,1.61.02,0,.05,0,.07-.01.02,0,.05.01.07.01h10.92c1.05,0,1.9-.85,1.9-1.9v-.57c0-.15-.12-.27-.27-.27Z"/>
    <path class="st1" d="M4.13,5c.15,0,.27-.12.27-.27V1.51h10.54v3.58c0,.15.12.27.27.27s.27-.12.27-.27V1.24c0-.15-.12-.27-.27-.27H4.13c-.15,0-.27.12-.27.27v3.48c0,.15.12.27.27.27Z"/>
    <path class="st1" d="M9.26,3.26c-.15,0-.27.12-.27.27s.12.27.27.27h4.42c.15,0,.27-.12.27-.27s-.12-.27-.27-.27h-4.42Z"/>
    <path class="st1" d="M5.61,3.26c-.15,0-.27.12-.27.27s.12.27.27.27h1.96c.15,0,.27-.12.27-.27s-.12-.27-.27-.27h-1.96Z"/>
    <path class="st1" d="M13.68,17.03c.15,0,.27-.12.27-.27s-.12-.27-.27-.27h-1.9c-.15,0-.27.12-.27.27s.12.27.27.27h1.9Z"/>
    <path class="st1" d="M5.34,16.76c0,.15.12.27.27.27h4.3c.15,0,.27-.12.27-.27s-.12-.27-.27-.27h-4.3c-.15,0-.27.12-.27.27Z"/>
    <path class="st1" d="M7.76,14.55h-2.15c-.15,0-.27.12-.27.27s.12.27.27.27h2.15c.15,0,.27-.12.27-.27,0-.15-.12-.27-.27-.27Z"/>
    <path class="st1" d="M13.9,10.63h-4.43s0,0,0,0c-.01,0-.02,0-.03,0,0,0-.02,0-.02,0,0,0-.01,0-.02,0-.01,0-.02,0-.03,0,0,0-.01,0-.02,0-.01,0-.02.01-.03.02,0,0-.01.01-.02.02,0,0-.02.01-.02.02,0,0-.01.01-.02.02,0,0-.01.01-.02.02,0,0,0,.01-.01.02,0,0-.01.02-.02.03,0,0,0,0,0,0-.04.11-.09.22-.15.33-.07.13-.02.3.12.37.04.02.08.03.12.03.1,0,.2-.05.24-.15.03-.07.07-.14.1-.21h4.25c.15,0,.27-.12.27-.27,0-.15-.12-.27-.27-.27Z"/>
    <path class="st1" d="M10.75,9.47h.72c.15,0,.27-.12.27-.27v-.75c0-.07.06-.13.13-.13h.9s.08.02.09.04c.01.01.04.05.04.1v.76c0,.07.02.14.07.2.05.05.12.08.19.08h.75c.15,0,.27-.12.27-.27s-.12-.27-.27-.27h-.47v-.48c0-.18-.06-.36-.19-.49-.13-.13-.3-.2-.48-.2h-.9c-.38,0-.68.31-.68.68v.47h-.45c-.15,0-.27.12-.27.27,0,.15.12.27.27.27Z"/>
    <path class="st1" d="M5.83,13.66c.32,0,.64-.04.95-.11.15-.03.24-.18.2-.33-.03-.15-.18-.24-.33-.2-.27.06-.55.09-.82.09-2,0-3.63-1.63-3.63-3.63s1.63-3.63,3.63-3.63c.48,0,.94.09,1.37.27.14.06.3,0,.36-.15.06-.14,0-.3-.15-.36-.5-.21-1.03-.31-1.58-.31-2.3,0-4.18,1.87-4.18,4.18,0,2.3,1.87,4.18,4.18,4.18Z"/>
    <path class="st1" d="M5.83,8.48s.09,0,.13,0c.15.02.29-.09.31-.24.02-.15-.09-.29-.24-.31-.07,0-.13-.01-.2-.01-.85,0-1.55.7-1.55,1.55s.7,1.55,1.55,1.55c.15,0,.27-.12.27-.27s-.12-.27-.27-.27c-.55,0-1-.45-1-1s.45-1,1-1Z"/>
    <path class="st1" d="M18.49,15.37l-1.92-1.92c-.11-.11-.28-.11-.39,0s-.11.28,0,.39l1.92,1.92c.2.2.2.52,0,.72-.2.2-.52.2-.72,0l-2.55-2.55c1.15-.95,1.89-2.38,1.89-3.98,0-2.84-2.31-5.15-5.15-5.15s-5.15,2.31-5.15,5.15,2.31,5.15,5.15,5.15c1.04,0,2-.31,2.81-.84l2.61,2.61c.21.21.48.31.75.31s.54-.1.75-.31c.41-.41.41-1.08,0-1.5ZM11.57,14.55c-2.54,0-4.6-2.06-4.6-4.6s2.06-4.6,4.6-4.6,4.6,2.06,4.6,4.6-2.06,4.6-4.6,4.6Z"/>
    <path class="st1" d="M11.57,6.18c-2.08,0-3.77,1.69-3.77,3.77s1.69,3.77,3.77,3.77,3.77-1.69,3.77-3.77-1.69-3.77-3.77-3.77ZM11.57,13.17c-1.78,0-3.22-1.44-3.22-3.22s1.44-3.22,3.22-3.22,3.22,1.44,3.22,3.22c0,1.78-1.44,3.22-3.22,3.22Z"/>
    <path class="st1" d="M9.4,8.83s0,.05.01.08c.02.11.03.21.04.32,0,0,0,0,0,.01,0,.04,0,.07,0,.11,0,.05,0,.09,0,.14,0,.06,0,.13,0,.2,0,.04,0,.07,0,.11-.01.15.1.28.25.3,0,0,.02,0,.02,0,.14,0,.26-.11.27-.25,0-.03,0-.06,0-.08,0,0,0,0,0,0,0,0,0-.02,0-.03,0-.08,0-.15,0-.23,0-.05,0-.11,0-.16,0-.04,0-.08,0-.12,0,0,0-.01,0-.02,0-.12-.02-.24-.04-.36,0-.03-.01-.06-.02-.09,0,0,0,0,0,0,0,0,0,0,0,0-.03-.13-.06-.27-.09-.4-.04-.15-.19-.23-.34-.19-.15.04-.23.19-.19.34.03.12.06.24.08.36Z"/>
  </g>
</svg>