<?xml version="1.0" encoding="UTF-8"?>
<svg id="_레이어_1" data-name="레이어_1" xmlns="http://www.w3.org/2000/svg" version="1.1" viewBox="0 0 20 20">
  <!-- Generator: Adobe Illustrator 29.3.1, SVG Export Plug-In . SVG Version: 2.1.0 Build 151)  -->
  <defs>
    <style>
      .st0 {
        fill: #98844f;
        fill-rule: evenodd;
        opacity: .6;
      }
    </style>
  </defs>
  <path class="st0" d="M14.69,16.78H4.3v-.02c-2.19-.22-3.9-2.06-3.9-4.31s1.71-4.09,3.9-4.31c0,0,0-.01,0-.02,0-2.87,2.33-5.2,5.2-5.2,2.58,0,4.71,1.88,5.12,4.33.03,0,.05,0,.08,0,2.63,0,4.76,2.13,4.76,4.76s-2.13,4.76-4.76,4.76ZM14.69,8.12c-.15,0-.29,0-.43.03h0s0,0-.02,0c-.24,0-.43-.19-.43-.43h0c-.2-2.2-2.05-3.93-4.31-3.93-2.39,0-4.33,1.94-4.33,4.33,0,.13,0,.25.02.38h0s.01.04.01.05c0,.24-.19.42-.42.43h0s-.02,0-.04,0c-1.91,0-3.46,1.55-3.46,3.46,0,1.77,1.32,3.22,3.03,3.43v.03h10.39c2.15,0,3.9-1.74,3.9-3.9s-1.74-3.9-3.9-3.9Z"/>
</svg>