<?xml version="1.0" encoding="UTF-8"?>
<svg id="_레이어_1" data-name="레이어_1" xmlns="http://www.w3.org/2000/svg" version="1.1" viewBox="0 0 20 20">
  <!-- Generator: Adobe Illustrator 29.3.1, SVG Export Plug-In . SVG Version: 2.1.0 Build 151)  -->
  <defs>
    <style>
      .st0 {
        fill: none;
        stroke: #95824e;
        stroke-linecap: round;
        stroke-linejoin: round;
        stroke-width: .75px;
      }

      .st1 {
        opacity: .7;
      }
    </style>
  </defs>
  <g class="st1">
    <g>
      <g>
        <circle class="st0" cx="11.73" cy="11.8" r="1.01"/>
        <path class="st0" d="M11.17,12.65l-.26.14c-.36.19-.58.56-.58.97v.85"/>
        <path class="st0" d="M12.3,12.65l.26.14c.36.19.58.56.58.97v.85"/>
      </g>
      <g>
        <circle class="st0" cx="15.44" cy="11.8" r="1.01"/>
        <path class="st0" d="M14.88,12.65l-.26.14c-.36.19-.58.56-.58.97v.85"/>
        <path class="st0" d="M16.01,12.65l.26.14c.36.19.58.56.58.97v.85"/>
      </g>
    </g>
    <path class="st0" d="M8.73,14.69h10.67v3.78h-10.67v-3.78Z"/>
    <path class="st0" d="M.66,3.02h18.74v2.98H.66v-2.98Z"/>
    <path class="st0" d="M.66,5.99v12.47l3.39-3.74V5.99"/>
    <path class="st0" d="M16.55,5.99v4.22"/>
    <path class="st0" d="M19.39,5.99v12.47"/>
    <path class="st0" d="M.66,3.02l3.39-1.6h12.51l2.84,1.6"/>
    <path class="st0" d="M4.05,14.72h3.44"/>
  </g>
</svg>