<?xml version="1.0" encoding="UTF-8"?>
<svg id="_레이어_1" data-name="레이어_1" xmlns="http://www.w3.org/2000/svg" version="1.1" viewBox="0 0 20 20">
  <!-- Generator: Adobe Illustrator 29.3.1, SVG Export Plug-In . SVG Version: 2.1.0 Build 151)  -->
  <defs>
    <style>
      .st0 {
        fill: #96834e;
      }
    </style>
  </defs>
  <path class="st0" d="M10,5.62h.07c1.9-.36,3.21-2.04,3.21-4.01,0-.15-.07-.22-.15-.29-.07-.07-.22-.07-.29-.07-1.9.36-3.21,2.04-3.21,4.01,0,.22.15.36.36.36h0ZM12.55,2.12c-.15,1.24-1.02,2.26-2.19,2.63.15-1.24,1.02-2.26,2.19-2.63Z"/>
  <path class="st0" d="M16.71,13.28c-1.17-.51-1.97-1.61-1.97-2.92,0-1.17.58-2.26,1.61-2.85.15-.07.22-.29.15-.51,0,0,0-.07-.07-.07-.8-.8-1.97-1.31-3.14-1.31-.58,0-1.17.15-1.68.36-.51.22-1.09.36-1.61.36s-1.09-.15-1.61-.36c-.51-.22-1.09-.36-1.68-.36-.44,0-4.38.15-4.38,5.11,0,4.09,2.77,8.03,4.38,8.03.73,0,1.39-.15,2.04-.44.8-.36,1.68-.36,2.48,0,.66.29,1.31.44,2.04.44,1.31,0,2.85-2.55,3.65-4.96.07-.22-.07-.44-.22-.51h0ZM13.28,18.03c-.58,0-1.24-.15-1.75-.36-.95-.44-2.04-.44-2.99,0-.58.22-1.24.36-1.82.36-1.02,0-3.65-3.5-3.65-7.3,0-4.16,3.06-4.38,3.65-4.38.51,0,1.02.15,1.46.36.58.22,1.17.36,1.82.36s1.24-.15,1.82-.36c.44-.22.95-.29,1.46-.36.88,0,1.68.29,2.33.8-1.75,1.31-2.12,3.79-.8,5.55.36.44.8.88,1.31,1.09-.95,2.63-2.26,4.23-2.85,4.23Z"/>
</svg>