<?xml version="1.0" encoding="UTF-8"?>
<svg id="_레이어_1" data-name="레이어_1" xmlns="http://www.w3.org/2000/svg" version="1.1" viewBox="0 0 20 20">
  <!-- Generator: Adobe Illustrator 29.3.1, SVG Export Plug-In . SVG Version: 2.1.0 Build 151)  -->
  <defs>
    <style>
      .st0 {
        fill: #4ec0e5;
      }

      .st1 {
        fill: none;
        stroke: #4ec0e5;
        stroke-miterlimit: 10;
        stroke-width: .6px;
      }

      .st2 {
        opacity: .7;
      }
    </style>
  </defs>
  <g class="st2">
    <path class="st0" d="M2.68,19.05c-1.04,0-1.88-.85-1.88-1.88,0-.91.65-1.68,1.53-1.85h.06V2.39c0-.96.78-1.74,1.74-1.74h13.34c.96,0,1.74.78,1.74,1.74s-.78,1.74-1.74,1.74h-1.16v13.04c0,1.04-.85,1.88-1.88,1.88H2.68ZM4.13,1.23c-.64,0-1.16.52-1.16,1.16v12.9h11.46c.16,0,.29.13.29.29s-.13.29-.29.29c-.72,0-1.3.59-1.3,1.3s.59,1.3,1.3,1.3,1.3-.59,1.3-1.3V2.39c0-.38.12-.74.35-1.04l.09-.12H4.13ZM2.68,15.86c-.72,0-1.3.59-1.3,1.3s.59,1.3,1.3,1.3h10.38l-.1-.12c-.27-.33-.42-.76-.42-1.19s.15-.85.42-1.19l.1-.12H2.68ZM17.47,1.23c-.64,0-1.16.52-1.16,1.16v1.16h1.16c.64,0,1.16-.52,1.16-1.16s-.52-1.16-1.16-1.16Z"/>
    <path class="st0" d="M5.17,12.17c-.08,0-.15-.03-.2-.08l-.37-.37c-.05-.05-.08-.13-.08-.2s.03-.15.08-.2c.05-.05.13-.08.2-.08s.15.03.2.08l.17.17.6-.6c.05-.05.13-.08.2-.08s.15.03.2.08c.11.11.11.3,0,.41l-.81.81c-.05.05-.13.08-.2.08Z"/>
    <path class="st0" d="M7.67,11.84c-.16,0-.29-.13-.29-.29s.13-.29.29-.29h6.24c.16,0,.29.13.29.29s-.13.29-.29.29h-6.24Z"/>
    <path class="st0" d="M5.17,14.16c-.08,0-.15-.03-.2-.08l-.37-.37c-.05-.05-.08-.13-.08-.2s.03-.15.08-.2c.05-.05.13-.08.2-.08s.15.03.2.08l.17.17.6-.6c.05-.05.13-.08.2-.08s.15.03.2.08c.11.11.11.3,0,.41l-.81.81c-.05.05-.13.08-.2.08Z"/>
    <path class="st0" d="M7.67,13.82c-.16,0-.29-.13-.29-.29s.13-.29.29-.29h6.24c.16,0,.29.13.29.29s-.13.29-.29.29h-6.24Z"/>
    <path class="st1" d="M6.11,9.8h6.48c.08,0,.14-.06.14-.14v-1.16c0-.08-.06-.14-.14-.14h-.27v-2.74h.27c.08,0,.14-.06.14-.14v-.77s-.02-.09-.06-.12l-3.24-2.16s-.11-.03-.16,0l-3.24,2.16s-.06.07-.06.12v.77c0,.08.06.14.14.14h.27v2.74h-.27c-.08,0-.14.06-.14.14v1.16c0,.08.06.14.14.14h0ZM10.58,5.61h1.01v2.74h-1.01v-2.74ZM8.85,5.61h1.01v2.74h-1.01v-2.74ZM7.11,5.61h1.01v2.74h-1.01v-2.74Z"/>
  </g>
</svg>