<?xml version="1.0" encoding="UTF-8"?>
<svg id="_레이어_1" data-name="레이어_1" xmlns="http://www.w3.org/2000/svg" version="1.1" viewBox="0 0 20 20">
  <!-- Generator: Adobe Illustrator 29.3.1, SVG Export Plug-In . SVG Version: 2.1.0 Build 151)  -->
  <defs>
    <style>
      .st0 {
        fill: #4ec0e5;
      }

      .st1 {
        opacity: .7;
      }
    </style>
  </defs>
  <g class="st1">
    <path class="st0" d="M18.33,1.97h-2.8c-.14,0-.25.11-.25.25s.11.25.25.25h2.21l-.48.5H2.75l-.48-.5h14.71c.14,0,.25-.11.25-.25s-.11-.25-.25-.25H1.68c-.14,0-.25.11-.25.25v13.58c0,.14.11.25.25.25h7.28c.14,0,.25-.11.25-.25s-.11-.25-.25-.25H2.27l.48-.5h6.22c.14,0,.25-.11.25-.25s-.11-.25-.25-.25H2.89v-1.01c0-.14-.11-.25-.25-.25s-.25.11-.25.25v1.17l-.45.48V2.85l.45.48v10.18c0,.14.11.25.25.25s.25-.11.25-.25V3.47h14.23v11.07h-5.95c-.14,0-.25.11-.25.25s.11.25.25.25h6.1l.48.5h-6.62c-.14,0-.25.11-.25.25s.11.25.25.25h7.2c.14,0,.25-.11.25-.25V2.22c0-.14-.11-.25-.25-.25h0ZM17.62,3.32l.45-.48v12.32l-.45-.48V3.32Z"/>
    <path class="st0" d="M11.89,14.03c.2-.2.14-.5.09-.76-.02-.1-.06-.27-.04-.32.02-.04.16-.13.24-.19.22-.14.49-.32.49-.61s-.27-.47-.49-.61c-.08-.05-.22-.14-.24-.19-.02-.05.02-.22.04-.32.05-.26.12-.56-.09-.76-.2-.2-.5-.14-.76-.09-.1.02-.27.06-.32.04-.04-.02-.13-.16-.19-.24-.14-.22-.32-.49-.61-.49s-.47.27-.61.49c-.05.08-.14.22-.19.24-.05.02-.22-.02-.32-.04-.26-.06-.56-.12-.76.09-.2.2-.14.5-.09.76.02.1.06.27.04.32-.02.04-.16.13-.24.19-.22.14-.49.32-.49.61s.27.47.49.61c.08.05.22.14.24.19.02.05-.02.22-.04.32-.05.26-.12.56.09.76.18.18.44.15.68.1v3.34c0,.09.05.17.12.22.08.05.17.05.25,0l.84-.44.84.44s.08.03.12.03c.05,0,.09-.01.13-.04.08-.05.12-.13.12-.22v-3.34c.24.05.5.08.68-.1h0ZM10.12,16.74c-.07-.04-.16-.04-.23,0l-.59.31v-2.87s.07.1.09.14c.14.22.32.49.61.49s.47-.27.61-.49c.03-.04.06-.09.09-.14v2.87l-.59-.31ZM11.53,13.67c-.07,0-.21-.02-.3-.04-.21-.04-.43-.09-.62-.01-.18.08-.3.26-.42.44-.05.08-.14.21-.19.25-.05-.04-.14-.18-.19-.25-.11-.18-.23-.36-.42-.44-.07-.03-.15-.04-.24-.04-.12,0-.26.03-.38.05-.09.02-.23.05-.3.04,0-.07.02-.21.04-.3.04-.21.09-.43.01-.62-.08-.18-.26-.3-.44-.42-.08-.05-.21-.14-.25-.19.04-.05.18-.14.25-.19.18-.11.36-.23.44-.42.08-.19.03-.41-.01-.62-.02-.09-.05-.23-.04-.3.07,0,.21.02.3.04.21.04.43.09.62.01.18-.08.3-.26.42-.44.05-.08.14-.21.19-.25.05.04.14.18.19.25.11.18.23.36.42.44.19.08.41.03.62-.01.09-.02.23-.05.3-.04,0,.07-.02.21-.04.3-.04.21-.09.43-.01.62.08.18.26.3.44.42.08.05.21.14.25.19-.04.05-.18.14-.25.19-.18.11-.36.23-.44.42-.08.19-.03.41.01.62.02.09.05.23.04.3h0Z"/>
    <path class="st0" d="M10.01,11.24c-.5,0-.91.41-.91.91s.41.91.91.91.91-.41.91-.91-.41-.91-.91-.91ZM10.01,12.55c-.22,0-.41-.18-.41-.41s.18-.41.41-.41.41.18.41.41-.18.41-.41.41Z"/>
    <path class="st0" d="M4.15,12.71h2.17c.14,0,.25-.11.25-.25s-.11-.25-.25-.25h-2.17c-.14,0-.25.11-.25.25s.11.25.25.25Z"/>
    <path class="st0" d="M4.15,13.88h2.84c.14,0,.25-.11.25-.25s-.11-.25-.25-.25h-2.84c-.14,0-.25.11-.25.25s.11.25.25.25Z"/>
    <path class="st0" d="M15.86,12.2h-2.17c-.14,0-.25.11-.25.25s.11.25.25.25h2.17c.14,0,.25-.11.25-.25s-.11-.25-.25-.25Z"/>
    <path class="st0" d="M15.86,13.38h-2.84c-.14,0-.25.11-.25.25s.11.25.25.25h2.84c.14,0,.25-.11.25-.25s-.11-.25-.25-.25Z"/>
    <path class="st0" d="M5.88,4.45c-.09-.04-.2-.02-.27.04l-.65.57-.65-.57c-.07-.07-.18-.08-.27-.04-.09.04-.15.13-.15.23v1.33c0,.07.03.14.08.19l.81.72s.11.06.17.06.12-.02.17-.06l.81-.72c.05-.05.08-.12.08-.19v-1.33c0-.1-.06-.19-.15-.23ZM5.53,5.9l-.56.5-.56-.5v-.66l.4.35c.1.08.24.08.33,0l.4-.35v.66Z"/>
    <path class="st0" d="M15.86,4.81H7.23c-.14,0-.25.11-.25.25s.11.25.25.25h8.63c.14,0,.25-.11.25-.25s-.11-.25-.25-.25Z"/>
    <path class="st0" d="M15.86,5.98h-4.99c-.14,0-.25.11-.25.25s.11.25.25.25h4.99c.14,0,.25-.11.25-.25s-.11-.25-.25-.25Z"/>
    <path class="st0" d="M7.23,6.48h2.46c.14,0,.25-.11.25-.25s-.11-.25-.25-.25h-2.46c-.14,0-.25.11-.25.25s.11.25.25.25Z"/>
    <path class="st0" d="M5.98,7.41c0,.14.11.25.25.25h8.96c.14,0,.25-.11.25-.25s-.11-.25-.25-.25H6.23c-.14,0-.25.11-.25.25Z"/>
    <path class="st0" d="M15.86,8.33h-1.85c-.14,0-.25.11-.25.25s.11.25.25.25h1.85c.14,0,.25-.11.25-.25s-.11-.25-.25-.25Z"/>
    <path class="st0" d="M13.09,8.58c0-.14-.11-.25-.25-.25H4.15c-.14,0-.25.11-.25.25s.11.25.25.25h8.69c.14,0,.25-.11.25-.25Z"/>
  </g>
</svg>