<?xml version="1.0" encoding="UTF-8"?>
<svg id="_레이어_1" data-name="레이어_1" xmlns="http://www.w3.org/2000/svg" version="1.1" viewBox="0 0 20 20">
  <!-- Generator: Adobe Illustrator 29.3.1, SVG Export Plug-In . SVG Version: 2.1.0 Build 151)  -->
  <defs>
    <style>
      .st0 {
        fill: #4ec0e5;
      }

      .st1 {
        opacity: .7;
      }
    </style>
  </defs>
  <g id="_x30_22---Trophy" class="st1">
    <path id="Shape" class="st0" d="M18.5,7.08c-.39-.23-.88-.13-1.45.29.38-.27.64-.96.71-1.63.08-.82-.07-1.76-.52-1.97,0,0,0,0-.01,0-.02,0-.04-.01-.05-.01-.02,0-.04,0-.06-.01,0,0-.02,0-.03,0-.07,0-.14.03-.19.08-.37.27-.57,1.05-.67,1.69-.09.48-.08.97.02,1.45-.34-.58-.75-.73-1.05-.73-.22,0-.41.15-.47.36-.16.53-.12,1.1.12,1.6.08.2.18.38.31.55-.18-.22-.43-.38-.7-.44-.22-.04-.44.06-.55.26-.24.51-.27,1.1-.08,1.63.04.13.09.27.14.39-.15-.19-.34-.33-.56-.43-.21-.08-.46-.02-.6.16-.32.48-.43,1.08-.29,1.64.06.55.33,1.06.75,1.42-.07.08-.14.16-.22.25h-.45c-.07-.51-.44-.93-.94-1.05-.19-.05-.35-.18-.44-.36l-.06-.12v-1.93c1.66-1.18,2.78-2.98,3.09-4.99h.26c.88,0,1.6-.72,1.6-1.6,0-.88-.72-1.6-1.6-1.6h-.27c-.03-.16-.06-.31-.1-.45-.06-.25-.29-.43-.55-.43h-7.2c-.26,0-.48.18-.55.43-.03.14-.07.29-.1.45h-.27c-.88,0-1.6.72-1.6,1.6,0,.88.72,1.6,1.6,1.6h.26c.31,2.01,1.42,3.81,3.09,4.99v1.93l-.06.12c-.09.18-.25.31-.44.35-.5.12-.87.54-.94,1.05h-.45c-.07-.08-.15-.17-.22-.25.42-.36.69-.87.75-1.42.14-.56.04-1.16-.29-1.64-.14-.18-.39-.25-.6-.16-.22.09-.41.24-.56.43.06-.13.11-.26.14-.39.19-.53.16-1.12-.08-1.63-.1-.2-.33-.31-.55-.26-.28.06-.52.22-.7.44.13-.17.23-.36.31-.55.23-.5.28-1.07.12-1.6-.06-.21-.25-.35-.47-.36-.3,0-.71.15-1.05.73.1-.48.11-.97.02-1.45-.1-.65-.3-1.44-.68-1.7,0,0-.02-.01-.03-.02-.02-.01-.03-.02-.05-.03,0,0,0,0-.01,0-.02,0-.04-.01-.06-.01-.02,0-.04,0-.05,0-.01,0-.03,0-.04,0-.02,0-.05,0-.07.02,0,0,0,0,0,0-.45.21-.6,1.15-.52,1.97.07.67.32,1.36.71,1.63-.57-.42-1.06-.52-1.45-.29-.19.13-.28.36-.23.59.1.65.47,1.23,1.02,1.59h0c.27.19.59.3.92.31.16,0,.33-.04.48-.1.06.16.13.31.2.47-.06-.03-.11-.06-.17-.08-.68-.31-1.22-.31-1.6,0-.17.16-.23.41-.15.63.21.64.71,1.15,1.34,1.37h0c.23.09.48.14.72.14.28,0,.56-.08.79-.24.09.15.18.29.27.43-.09-.03-.18-.05-.28-.07-.75-.17-1.31-.06-1.66.32-.16.18-.18.45-.06.66.33.61.93,1.02,1.61,1.12h0c.13.02.25.03.38.03.3,0,.6-.07.86-.21-.02.06-.04.13-.04.2v.58c0,.18.09.35.23.46l-.45,1.58h-.07c-.32,0-.58.26-.58.58v.58c0,.32.26.58.58.58h8.73c.32,0,.58-.26.58-.58v-.58c0-.32-.26-.58-.58-.58h-.07l-.45-1.58c.14-.11.23-.28.23-.46v-.58c0-.07-.01-.14-.04-.2.27.14.56.21.86.21.13,0,.26-.01.38-.03h0c.68-.09,1.28-.51,1.61-1.12.12-.21.09-.47-.06-.66-.35-.38-.91-.48-1.66-.32-.1.02-.19.04-.28.07.09-.14.18-.29.27-.43.23.16.51.25.79.24.25,0,.49-.05.72-.14h0c.63-.23,1.13-.73,1.34-1.37.08-.22.02-.47-.15-.63-.38-.31-.92-.31-1.6,0-.06.03-.12.05-.17.08.07-.16.13-.31.2-.47.15.07.31.11.48.1.33-.01.65-.12.92-.31h0c.55-.36.93-.94,1.02-1.59.05-.22-.04-.45-.23-.59h0ZM16.96,7.43s.04-.02.07-.04h0s-.04.04-.07.06c0,0,0-.01,0-.02h0ZM16.81,5.61c.05-.37.14-.73.28-1.08.1.37.13.77.08,1.15-.02.4-.15.79-.37,1.12-.07-.39-.07-.8,0-1.19ZM15.27,6.83c.26.05.46.35.57.6.2.39.24.84.13,1.26h0c-.28-.15-.49-.41-.58-.71h0c-.17-.36-.21-.76-.12-1.14ZM15.77,9.24c-.05.14-.11.27-.17.41-.02-.06-.03-.12-.05-.18-.08-.23-.19-.45-.33-.65.15.19.34.33.56.42h0ZM14.4,8.89c.3.15.52.43.6.76.16.41.15.87-.02,1.27h0s0,.01,0,.01c-.3-.21-.51-.53-.58-.89h0c-.14-.37-.13-.78.01-1.15h0ZM14.68,11.43c-.08.13-.16.25-.24.38-.01-.09-.03-.19-.05-.28-.04-.16-.09-.32-.15-.48.12.15.27.28.43.38h0ZM6.51,14.22h6.99v.58s-6.99,0-6.99,0v-.58ZM13.1,11.87h0c-.1-.39-.05-.79.14-1.14.33.2.54.55.59.93.12.42.06.88-.17,1.25h0s-.01.03-.01.03c-.31-.27-.51-.65-.54-1.07ZM14.52,2.57c.56,0,1.02.46,1.02,1.02,0,.56-.46,1.02-1.02,1.02h-.18c.07-.68.07-1.36,0-2.04h.19ZM5.49,4.61c-.56,0-1.02-.46-1.02-1.02,0-.56.46-1.02,1.02-1.02h.19c-.08.68-.08,1.36,0,2.04h-.18ZM6.41,1.7h7.18c.09.39,1.26,5.69-3.31,8.37-.17.1-.37.1-.54,0C5.08,7.35,6.37,1.91,6.41,1.7h0ZM9.44,10.57c.35.2.78.2,1.13,0,0,0,.01,0,.02-.01v1.33h-1.16v-1.33s.01,0,.02.01ZM8.48,13.15c.36-.09.66-.33.82-.66v-.02h1.4v.02c.17.33.47.57.83.66.24.06.43.24.49.48h-4.03c.06-.24.25-.42.49-.48h0ZM6.19,11.65c.04-.38.26-.72.59-.93.19.35.24.76.14,1.14h0c-.04.41-.23.79-.54,1.07v-.02s-.02,0-.02,0c-.22-.38-.28-.83-.17-1.25h0ZM5.62,11.53c-.02.09-.03.19-.05.28-.08-.12-.16-.25-.24-.38.17-.1.32-.23.43-.38-.07.15-.12.31-.15.48h0ZM5.02,9.65c.08-.33.3-.61.6-.76.14.37.15.77.01,1.15h0c-.07.36-.28.68-.58.89h0s0-.01,0-.01c-.17-.4-.18-.86-.02-1.27h0ZM4.47,9.46c-.02.06-.04.12-.05.18-.06-.14-.12-.27-.17-.41.22-.09.41-.23.56-.42-.15.2-.26.42-.33.65h0ZM4.17,7.43c.12-.25.31-.55.57-.6.1.38.05.79-.12,1.14h0c-.09.31-.3.57-.58.72h0c-.11-.43-.06-.88.13-1.27h0ZM2.91,4.52c.14.35.24.71.29,1.08.08.39.08.8,0,1.19-.22-.33-.35-.72-.37-1.12-.05-.39-.02-.78.08-1.15ZM3.05,7.43s0,.01,0,.02c-.02-.02-.04-.03-.07-.05h0s.04.02.07.03ZM2.62,8.77c-.41-.27-.69-.7-.77-1.19,0,0,0-.01,0-.02.22-.08.54.12.79.3.38.27.68.63.86,1.06-.22.12-.53.07-.88-.15ZM3.53,11.3c-.47-.17-.84-.54-.99-1.01,0,0,0-.01,0-.02.2-.13.52-.09.96.1.43.17.8.47,1.05.86-.3.21-.69.23-1.02.06h0ZM4.81,13.62c-.5-.06-.95-.36-1.19-.81,0,0,0,0,0-.02.21-.19.57-.24,1.09-.12.47.07.9.3,1.22.64-.15.17-.47.4-1.12.3h0ZM14.37,18H5.64v-.58h8.73v.58ZM6.32,16.84l.42-1.46h6.55l.42,1.46h-7.38ZM15.3,12.67c.52-.11.88-.07,1.09.12,0,0,0,.01,0,.01-.24.45-.68.75-1.19.81-.64.1-.97-.13-1.12-.3.32-.35.75-.57,1.22-.64h0ZM16.52,10.38c.44-.2.76-.23.96-.1,0,0,0,.01,0,.02-.16.47-.52.84-.99,1.01-.33.17-.72.14-1.02-.06.25-.39.62-.69,1.06-.86h0ZM18.15,7.58c-.07.49-.35.92-.77,1.19-.34.22-.66.28-.88.15.18-.43.48-.8.86-1.06.24-.18.57-.38.79-.3,0,0,0,.01,0,.02h0Z"/>
  </g>
</svg>