<?xml version="1.0" encoding="UTF-8"?>
<svg id="_레이어_1" xmlns="http://www.w3.org/2000/svg" version="1.1" viewBox="0 0 20 20">
  <!-- Generator: Adobe Illustrator 29.3.1, SVG Export Plug-In . SVG Version: 2.1.0 Build 151)  -->
  <defs>
    <style>
      .st0 {
        opacity: .8;
      }

      .st1 {
        fill: #4ec0e5;
        stroke: #4ec0e5;
        stroke-linejoin: round;
        stroke-width: .2px;
      }
    </style>
  </defs>
  <g class="st0">
    <path class="st1" d="M10,6c.8,0,1.4-.8,1.6-1.7.2-.2.3-.5.3-.6s0-.2-.1-.3c0,0,0,0,0,0-.1-.9-.8-1.6-1.7-1.6s-1.5.6-1.7,1.6c0,0,0,0,0,0-.1,0-.1.2-.1.3,0,.2,0,.5.3.6.2.8.8,1.7,1.6,1.7ZM8.6,3.5c0-.9.6-1.5,1.3-1.5s1.3.6,1.3,1.5c0,0,0,0,0,.1,0,0,0,0,0,0,0,0,0,0,0,0,0,0,0,.2,0,.4,0,0,0,0,0,0s0,0,0,0c-.2.8-.7,1.5-1.3,1.5s-1.1-.6-1.3-1.5c0,0,0,0,0,0,0,0,0,0,0,0,0-.1-.1-.3-.1-.4,0,0,0,0,0,0s0,0,0,0c0,0,0,0,0,0h0Z"/>
    <path class="st1" d="M5.9,9.4h8.1c0,0,.1,0,.1,0,0,0,0,0,0-.1l-.7-2.4c0,0,0,0-.1-.1l-1.3-.4h0s0-.1-.1-.1l-.7-.3c0,0-.2,0-.2,0l-1.1,2.3-1.1-2.3c0,0-.1-.1-.2,0l-.7.3s0,0,0,.1h0s-1.3.4-1.3.4c0,0,0,0-.1.1l-.7,2.4c0,0,0,.1,0,.1,0,0,0,0,.1,0ZM6.7,6.9l1.3-.4c0,0,.1,0,.1-.1h0s.5-.2.5-.2l1.2,2.4c0,0,0,0,.1,0s.1,0,.1,0l1.2-2.4.5.2h0c0,0,0,.1.1.2l1.3.4.6,2.1h-7.7l.6-2.1h0Z"/>
    <path class="st1" d="M4.7,14.7c.7,0,1.3-.6,1.5-1.4v-.2c0,0,0,0,0-.1.2-.2.3-.4.3-.6s0-.2-.1-.3c0,0,0,0,0,0-.1-.9-.8-1.6-1.7-1.6h0c0,0-.2,0-.3,0-.7.1-1.2.7-1.4,1.6,0,0,0,0,0,0,0,0-.1.2-.1.3,0,.2,0,.5.3.6.2.9.8,1.7,1.6,1.7h0ZM3.3,12.3s0,0,0-.1c0-.7.5-1.3,1-1.4,0,0,.2,0,.3,0h.1c.7,0,1.2.6,1.2,1.4,0,0,0,.1,0,.1,0,0,0,0,0,0,0,.1,0,.4-.2.5,0,0,0,0,0,0h0c0,.2,0,.3-.1.4-.2.6-.7,1.1-1.2,1.1s-1.1-.6-1.3-1.5c0,0,0,0,0,0-.2-.1-.2-.4-.2-.5,0,0,0,0,0,0h0Z"/>
    <path class="st1" d="M8.2,15.4c0,0,0,0-.1-.1l-1.3-.4h0s0-.1,0-.1l-.7-.3c0,0-.2,0-.2,0l-1.1,2.3-1.1-2.3c0,0-.1-.1-.2,0l-.7.3s0,0,0,.1h0s-1.3.4-1.3.4c0,0-.1,0-.1.1l-.7,2.4s0,.1,0,.1c0,0,0,0,.1,0h8.1c0,0,.1,0,.1,0,0,0,0-.1,0-.1,0,0-.7-2.4-.7-2.4ZM.9,17.7l.6-2.1,1.3-.4c0,0,0,0,.1-.1h0s.5-.2.5-.2l1.2,2.4c0,.1.2.1.3,0l1.2-2.4.5.2h0c0,0,0,.1.1.1l1.3.4.6,2.1H.9Z"/>
    <path class="st1" d="M13.6,11.9s0,0,0,0c-.1,0-.1.2-.1.3,0,.2,0,.5.3.6,0,0,0,0,0,0,0,.1,0,.2.1.4.3.7.8,1.2,1.5,1.2s1.4-.9,1.6-1.7c.2-.2.3-.4.3-.6s0-.2-.1-.3c0,0,0,0,0,0-.1-.9-.8-1.6-1.7-1.6s-1.5.6-1.7,1.6ZM16.6,12.1c0,0,0,.1,0,.1,0,0,0,0,0,0,0,.1,0,.4-.2.5,0,0,0,0,0,0-.2.9-.7,1.5-1.3,1.5s-.9-.4-1.2-1.1c0-.1,0-.2-.1-.3,0,0,0,0,0,0,0,0,0,0,0,0-.1-.1-.2-.4-.2-.5,0,0,0,0,0,0,0,0,0,0,0-.1,0-.8.6-1.4,1.2-1.4h.1c.1,0,.2,0,.3,0,.6.1,1,.7,1,1.4h0Z"/>
    <path class="st1" d="M19.5,17.8l-.7-2.4c0,0,0,0-.1-.1l-1.3-.4h0s0-.1-.1-.1l-.7-.3c0,0-.2,0-.2,0l-1.1,2.3-1.1-2.3c0,0-.1-.1-.2,0l-.7.3s0,0,0,.1h0s-1.3.4-1.3.4c0,0-.1,0-.1.1l-.7,2.4s0,.1,0,.1,0,0,.1,0h8.2s.1,0,.1,0,0-.1,0-.1h0ZM11.4,17.7l.6-2.1,1.3-.4c0,0,.1,0,.1-.1h0s.5-.2.5-.2l1.2,2.4c0,.1.2.1.3,0l1.2-2.4.5.2h0c0,0,0,.1.1.1l1.3.4.6,2.1h-7.7Z"/>
    <path class="st1" d="M15.2,7.9c0,0,.1.2.2.2h0c.1,0,.2-.2.2-.3,0,0,0,0,0-.1,0-.1-.1-.2-.3-.2-.1,0-.2.2-.1.3,0,0,0,0,0,0h0Z"/>
    <path class="st1" d="M14.7,6.6c0,0,.1.1.2.1s0,0,.1,0c.1,0,.1-.2,0-.3,0,0,0,0,0,0,0,0-.2-.1-.3,0-.1,0-.1.2,0,.3,0,0,0,0,0,0h0Z"/>
    <path class="st1" d="M15.4,9.1h0c0,.2,0,.4.2.4h0c.1,0,.2-.1.2-.2h0c0-.3-.1-.4-.2-.4s-.2.1-.2.2Z"/>
    <path class="st1" d="M13.9,5.4s.1,0,.2,0,.1,0,.1,0c0,0,0-.2,0-.3h0c0-.2-.2-.2-.3,0,0,0,0,.2,0,.3h0c0,0,0,0,0,0Z"/>
    <path class="st1" d="M12.7,4.5s0,0,0,0c0,0,0,0,.1,0,0,0,.1,0,.2-.1,0-.1,0-.2,0-.3,0,0,0,0-.1,0-.1,0-.2,0-.3,0,0,.1,0,.2,0,.3h0Z"/>
    <path class="st1" d="M7.2,13.8c0,0-.2,0-.3,0,0,.1,0,.2,0,.3,0,0,0,0,0,0,0,0,0,0,.1,0,0,0,.2,0,.2-.1,0-.1,0-.2,0-.3,0,0,0,0,0,0Z"/>
    <path class="st1" d="M5.1,6.6s0,0,.1,0c0,0,.2,0,.2-.1h0c0-.2,0-.3,0-.4-.1,0-.2,0-.3,0h0c0,.2,0,.3,0,.4h0Z"/>
    <path class="st1" d="M4.6,8h0c0,0,.2,0,.2-.2,0,0,0,0,0,0,0-.1,0-.2-.2-.3-.1,0-.2,0-.3.2,0,0,0,0,0,.1,0,.1,0,.2.2.3h0Z"/>
    <path class="st1" d="M10,14.5h-.1c-.1,0-.2,0-.2.2s0,.2.2.2h.1c.1,0,.2-.1.2-.2s-.1-.2-.2-.2h0Z"/>
    <path class="st1" d="M4.4,9.4c.1,0,.2-.1.2-.2h0c0-.2,0-.3-.2-.3h0c-.1,0-.2.1-.2.2h0c0,.2,0,.3.2.3h0Z"/>
    <path class="st1" d="M7.2,4.6s0,0,.1,0h0c.1-.1.2-.2,0-.4s-.2-.1-.3,0c0,0,0,0,0,0-.1,0-.1.2,0,.3,0,0,.1.1.2.1Z"/>
    <path class="st1" d="M12.7,13.8s0,0,0,0c-.1,0-.1.2,0,.3,0,0,.1.1.2.1s0,0,.1,0c0,0,0,0,.1,0,.1,0,.1-.2,0-.3,0-.1-.2-.1-.3,0h0Z"/>
    <path class="st1" d="M6.1,5.5c0,0,.1,0,.2,0h0c0-.2,0-.3,0-.4,0,0-.2,0-.3,0h0c0,.2,0,.3,0,.4s0,0,.2,0Z"/>
    <path class="st1" d="M8.5,14.3c-.1,0-.2,0-.3.1,0,.1,0,.2.1.3s0,0,.1,0h0c.1,0,.2,0,.2-.2,0-.1,0-.2-.2-.3,0,0,0,0-.1,0h0Z"/>
    <path class="st1" d="M11.4,14.4s0,0-.1,0c-.1,0-.2.1-.2.3,0,.1.1.2.2.2h0s0,0,.1,0c.1,0,.2-.1.2-.3,0-.1-.1-.2-.3-.2h0Z"/>
  </g>
</svg>