<?xml version="1.0" encoding="UTF-8"?>
<svg id="_레이어_1" data-name="레이어_1" xmlns="http://www.w3.org/2000/svg" version="1.1" viewBox="0 0 20 20">
  <!-- Generator: Adobe Illustrator 29.3.1, SVG Export Plug-In . SVG Version: 2.1.0 Build 151)  -->
  <defs>
    <style>
      .st0 {
        opacity: .76;
      }

      .st1 {
        fill: #4ec0e5;
      }
    </style>
  </defs>
  <g class="st0">
    <path class="st1" d="M9.96,6.01c.8,0,1.41-.85,1.6-1.7.19-.18.26-.45.26-.64,0-.11-.02-.25-.12-.33-.03-.02-.06-.04-.08-.05-.13-.94-.8-1.59-1.66-1.59s-1.52.65-1.66,1.59c-.03.01-.06.03-.08.05-.1.08-.12.23-.12.33,0,.19.07.46.26.64.2.85.81,1.7,1.6,1.7ZM8.61,3.47c.06-.85.62-1.45,1.34-1.45s1.28.6,1.34,1.45c0,.04.02.08.05.11.01.01.03.02.04.03.03.01.06.02.09.02,0,.09-.01.25-.09.38-.02.03-.05.07-.08.09-.03.02-.05.06-.06.09-.18.85-.74,1.5-1.29,1.5s-1.11-.64-1.29-1.5c0-.04-.03-.07-.06-.09-.03-.02-.05-.05-.07-.08-.09-.12-.11-.3-.11-.39.03,0,.06,0,.09-.01.03-.01.05-.03.06-.06.02-.02.03-.05.03-.08Z"/>
    <path class="st1" d="M5.88,9.35h8.15c.05,0,.1-.02.13-.07.03-.04.04-.09.02-.15l-.72-2.43c-.02-.06-.06-.1-.11-.11l-1.31-.38v-.03s-.06-.09-.1-.11l-.68-.3c-.08-.04-.18,0-.21.08l-1.1,2.28-1.1-2.28c-.04-.08-.13-.11-.21-.08l-.68.3s-.08.06-.09.11v.03s-1.32.38-1.32.38c-.06.02-.1.06-.11.11l-.72,2.43c-.02.05,0,.1.03.15.03.04.08.07.13.07ZM6.73,6.89l1.31-.38c.06-.02.1-.06.11-.11v-.04s.48-.2.48-.2l1.18,2.45c.03.06.09.09.15.09s.12-.04.15-.09l1.18-2.45.47.2v.04c.03.06.07.1.13.11l1.31.38.63,2.13h-7.71l.63-2.13Z"/>
    <path class="st1" d="M4.71,14.67c.7,0,1.26-.65,1.51-1.39l.05-.17s.03-.09.04-.14c.19-.18.26-.45.26-.64,0-.11-.02-.25-.12-.33-.03-.02-.06-.04-.08-.05-.13-.94-.79-1.59-1.65-1.59h-.01c-.1,0-.2,0-.29.03-.72.13-1.25.73-1.37,1.57-.03.01-.06.03-.08.05-.1.08-.12.23-.12.33,0,.19.07.46.26.64.2.85.81,1.7,1.6,1.7ZM3.28,12.26c.05-.02.09-.08.09-.14.06-.73.47-1.27,1.04-1.41.1-.02.2-.04.3-.04.04,0,.08,0,.11,0,.67.06,1.17.63,1.23,1.44,0,.06.04.11.09.14.03.01.06.02.09.02.01.11-.03.35-.18.47-.03.02-.05.05-.06.08,0,0,0,0,0,.01-.03.15-.07.29-.13.42-.25.64-.71,1.08-1.17,1.08-.56,0-1.11-.64-1.29-1.49,0-.04-.03-.07-.06-.09-.15-.12-.19-.35-.18-.47.03,0,.06,0,.09-.02Z"/>
    <path class="st1" d="M8.23,15.37c-.02-.05-.06-.09-.11-.11l-1.31-.38v-.03s-.06-.09-.1-.1l-.68-.3c-.08-.04-.18,0-.21.08l-1.1,2.28-1.1-2.28c-.04-.08-.13-.11-.21-.08l-.68.3s-.08.06-.09.1v.03s-1.32.38-1.32.38c-.06.02-.1.06-.11.11l-.72,2.43s0,.1.03.15c.03.04.08.07.13.07h8.15c.05,0,.1-.02.13-.07.03-.04.04-.1.02-.15l-.72-2.43ZM.86,17.68l.63-2.13,1.31-.37c.06-.02.1-.06.11-.11v-.04s.48-.21.48-.21l1.18,2.45c.06.11.24.11.3,0l1.18-2.45.47.21v.04c.03.05.07.1.13.11l1.31.37.63,2.13H.86Z"/>
    <path class="st1" d="M13.64,11.94s-.06.03-.08.05c-.1.08-.12.23-.12.33,0,.19.07.46.26.64,0,.03.01.06.02.08.03.12.07.25.12.37.28.68.8,1.25,1.46,1.25.8,0,1.41-.85,1.6-1.7.19-.18.26-.45.26-.64,0-.11-.02-.25-.12-.33-.03-.02-.06-.04-.08-.05-.13-.94-.8-1.59-1.66-1.59s-1.52.65-1.66,1.59ZM16.64,12.13c0,.06.04.11.09.14.03.01.06.02.09.02.01.11-.03.35-.17.47-.03.02-.05.06-.06.09-.18.85-.74,1.49-1.29,1.49-.46,0-.92-.44-1.17-1.08-.04-.11-.08-.22-.11-.34,0-.02-.01-.05-.02-.07,0-.04-.03-.07-.06-.09-.15-.12-.19-.35-.18-.47.03,0,.06,0,.09-.02.05-.02.09-.08.09-.14.06-.79.55-1.37,1.2-1.44.05,0,.09,0,.14,0,.11,0,.21.01.3.04.57.14.98.68,1.04,1.41Z"/>
    <path class="st1" d="M19.53,17.8l-.72-2.43c-.02-.05-.06-.09-.11-.11l-1.31-.38v-.03s-.06-.09-.1-.1l-.68-.3c-.08-.04-.18,0-.22.08l-1.1,2.28-1.1-2.28c-.04-.08-.13-.11-.22-.08l-.68.3s-.08.06-.09.1v.03s-1.32.38-1.32.38c-.05.02-.1.06-.11.11l-.72,2.43c-.02.05,0,.1.03.15s.08.07.13.07h8.15c.05,0,.1-.02.13-.07s.04-.1.03-.15ZM11.44,17.68l.63-2.13,1.31-.37c.06-.02.1-.06.11-.11v-.04s.48-.21.48-.21l1.18,2.45c.06.11.24.11.3,0l1.18-2.45.46.21v.04c.03.05.07.1.13.11l1.31.37.63,2.13h-7.71Z"/>
    <path class="st1" d="M15.21,7.87c.02.1.11.17.21.17.02,0,.04,0,.05,0,.12-.03.19-.15.16-.27,0-.04-.02-.08-.03-.11-.03-.12-.15-.19-.27-.15-.12.03-.19.15-.15.27,0,.03.02.07.03.1Z"/>
    <path class="st1" d="M14.69,6.57c.04.07.11.11.19.11.04,0,.07,0,.11-.03.11-.06.14-.19.09-.3-.02-.04-.04-.07-.06-.1-.06-.1-.2-.14-.3-.08-.11.06-.14.2-.08.3.02.03.04.06.05.09Z"/>
    <path class="st1" d="M15.37,9.15v.13c0,.12.09.22.22.23h0c.12,0,.22-.1.22-.22v-.14c0-.12-.1-.22-.22-.22s-.22.1-.22.22Z"/>
    <path class="st1" d="M13.86,5.45s.1.07.16.07.11-.02.15-.06c.09-.08.09-.23,0-.31l-.08-.08c-.09-.09-.23-.08-.31,0-.09.09-.08.23,0,.31l.08.08Z"/>
    <path class="st1" d="M12.67,4.52s.06.04.09.06c.04.02.08.03.11.03.08,0,.15-.04.19-.11.06-.11.03-.24-.08-.3-.03-.02-.07-.04-.1-.06-.11-.06-.24-.02-.3.08-.06.11-.02.24.08.3Z"/>
    <path class="st1" d="M7.24,13.77c-.1-.06-.24-.03-.3.08-.06.1-.03.24.07.3.04.02.07.04.1.06.04.02.07.03.11.03.08,0,.15-.04.19-.11.06-.11.02-.24-.08-.3-.03-.02-.06-.04-.09-.06Z"/>
    <path class="st1" d="M5.05,6.59s.07.03.11.03c.08,0,.15-.04.19-.11l.06-.09c.06-.1.03-.24-.08-.3-.11-.06-.24-.03-.3.08l-.06.1c-.06.11-.02.24.08.3Z"/>
    <path class="st1" d="M4.55,7.96s.04,0,.06,0c.1,0,.19-.07.21-.17,0-.04.02-.07.03-.1.03-.12-.04-.24-.15-.27-.12-.03-.24.04-.27.15-.01.04-.02.08-.03.11-.03.12.04.24.16.27Z"/>
    <path class="st1" d="M10.01,14.54h-.11c-.12,0-.22.09-.22.22,0,.12.09.22.22.23h.11c.12,0,.22-.1.22-.22s-.1-.22-.22-.22Z"/>
    <path class="st1" d="M4.42,9.4c.12,0,.22-.1.22-.23v-.1c0-.12-.09-.22-.22-.23h0c-.12,0-.22.1-.22.22v.12c0,.12.1.21.22.21Z"/>
    <path class="st1" d="M7.2,4.57s.08,0,.11-.03l.09-.05c.11-.06.15-.19.09-.3-.06-.11-.19-.14-.3-.09-.04.02-.07.04-.1.06-.11.06-.14.2-.08.3.04.07.11.11.19.11Z"/>
    <path class="st1" d="M12.69,13.82s-.06.04-.09.05c-.11.06-.15.19-.09.3.04.07.11.11.19.11.04,0,.07,0,.11-.03.03-.02.07-.04.1-.06.1-.06.14-.19.08-.3-.06-.11-.2-.14-.3-.08Z"/>
    <path class="st1" d="M6.05,5.46c.06,0,.11-.02.16-.06l.08-.08c.09-.08.09-.22,0-.31-.08-.09-.22-.09-.31,0l-.08.08c-.09.09-.08.23,0,.31.04.04.1.06.15.06Z"/>
    <path class="st1" d="M8.52,14.33c-.12-.04-.24.03-.27.15-.03.12.03.24.15.27.04.01.08.02.11.03.02,0,.04,0,.06,0,.1,0,.19-.06.21-.16.03-.12-.04-.24-.16-.27-.04,0-.07-.02-.1-.03Z"/>
    <path class="st1" d="M11.4,14.35s-.07.02-.1.03c-.12.03-.19.15-.16.27.02.1.11.17.21.17.02,0,.04,0,.05,0,.04,0,.08-.02.11-.03.12-.03.19-.15.16-.27-.03-.12-.15-.19-.27-.16Z"/>
  </g>
</svg>