<?xml version="1.0" encoding="UTF-8"?>
<svg id="_레이어_1" data-name="레이어_1" xmlns="http://www.w3.org/2000/svg" version="1.1" viewBox="0 0 20 20">
  <!-- Generator: Adobe Illustrator 29.3.1, SVG Export Plug-In . SVG Version: 2.1.0 Build 151)  -->
  <defs>
    <style>
      .st0 {
        fill: #4ec0e5;
        stroke: #4ec0e5;
        stroke-miterlimit: 10;
        stroke-width: .5px;
      }

      .st1 {
        opacity: .7;
      }
    </style>
  </defs>
  <g id="_x30_6_Collaborate" class="st1">
    <g>
      <path class="st0" d="M1.8,16.41h5.21c.46,0,.81-.42.73-.86-.26-1.28-1.22-2.27-2.43-2.61.46-.3.76-.81.76-1.39,0-.91-.74-1.66-1.66-1.66s-1.66.74-1.66,1.66c0,.58.3,1.1.76,1.39-1.21.33-2.18,1.33-2.44,2.61-.09.45.27.86.73.86ZM3.14,11.55c0-.7.57-1.27,1.27-1.27s1.27.57,1.27,1.27-.57,1.27-1.27,1.27-1.27-.57-1.27-1.27ZM1.46,15.62c.28-1.4,1.52-2.42,2.95-2.42s2.67,1.02,2.95,2.42c.04.21-.13.4-.34.4H1.8c-.21,0-.38-.19-.34-.4h0Z"/>
      <path class="st0" d="M18.93,15.54c-.26-1.28-1.22-2.27-2.43-2.61.46-.3.76-.81.76-1.39,0-.91-.74-1.66-1.66-1.66s-1.66.74-1.66,1.66c0,.58.3,1.1.76,1.39-1.21.33-2.18,1.33-2.43,2.61-.09.45.27.86.73.86h5.21c.46,0,.81-.42.73-.86ZM14.33,11.55c0-.7.57-1.27,1.27-1.27s1.27.57,1.27,1.27-.57,1.27-1.27,1.27-1.27-.57-1.27-1.27ZM12.65,15.62c.28-1.4,1.52-2.42,2.95-2.42s2.67,1.02,2.95,2.42c.04.21-.13.4-.34.4h-5.21c-.21,0-.38-.19-.34-.4h0Z"/>
      <path class="st0" d="M6.67,6.1c-.09.44.27.86.73.86h5.21c.46,0,.81-.42.73-.86-.26-1.28-1.22-2.27-2.43-2.61.46-.3.76-.81.76-1.39,0-.91-.74-1.66-1.66-1.66s-1.66.74-1.66,1.66c0,.58.3,1.1.76,1.39-1.21.33-2.18,1.33-2.43,2.61h0ZM8.74,2.1c0-.7.57-1.27,1.27-1.27s1.27.57,1.27,1.27-.57,1.27-1.27,1.27-1.27-.57-1.27-1.27ZM10.01,3.76c1.43,0,2.67,1.02,2.95,2.42.04.21-.13.4-.34.4h-5.21c-.21,0-.39-.19-.34-.4.28-1.4,1.52-2.42,2.95-2.42h0Z"/>
      <path class="st0" d="M12.95,2.59c-.1-.04-.21.01-.25.12-.04.1.01.21.12.25,3.12,1.14,5.25,4.14,5.32,7.46,0,.11.09.19.19.19h0c.11,0,.19-.09.19-.2-.07-3.53-2.26-6.6-5.57-7.82h0Z"/>
      <path class="st0" d="M7.07,2.59C3.75,3.8,1.56,6.87,1.49,10.41c0,.11.08.2.19.2h0c.11,0,.19-.08.19-.19.07-3.32,2.2-6.32,5.32-7.46.1-.04.15-.15.12-.25-.04-.1-.15-.15-.25-.12h0Z"/>
      <path class="st0" d="M14.22,17.53c-2.58,1.57-5.84,1.57-8.42,0-.09-.06-.21-.03-.27.07-.06.09-.03.21.07.27,2.7,1.64,6.12,1.64,8.82,0,.09-.06.12-.18.07-.27-.06-.09-.18-.12-.27-.07Z"/>
    </g>
  </g>
</svg>